<svg id="Layer_1" data-name="Layer 1" xmlns="http://www.w3.org/2000/svg" width="444" height="188.26" viewBox="0 0 444 188.26"><defs><style>.cls-1{fill:#00468b;}.cls-2{fill:#aa7eb8;}.cls-3{fill:#52b9e9;}.cls-4{fill:#69c6b4;}</style></defs><path class="cls-1" d="M-192.21,95a7.54,7.54,0,0,0-4.22-1.11c-4,0-6.59,3-6.59,7.4s2.74,7.48,6.74,7.48a7.44,7.44,0,0,0,4.29-1.41l.07,2.3a15.51,15.51,0,0,1-4.44.66c-5.25,0-8.88-3.55-8.88-8.66a9.19,9.19,0,0,1,9.55-9.25,9.69,9.69,0,0,1,3.63.67Z" transform="translate(205.24 77.8)"/><path class="cls-1" d="M-186.07,103.87l-1.41,3.33a3.86,3.86,0,0,0-.37,1.71,2.15,2.15,0,0,0,.15,1h-3.18a23.37,23.37,0,0,0,1.26-2.59l6.73-15.62,7,15.84a10.94,10.94,0,0,0,1.26,2.37h-3.26a7,7,0,0,0,.15-1,4.42,4.42,0,0,0-.45-1.63l-1.48-3.48h-6.36Zm3.26-7.69-2.67,6.29h5.33Z" transform="translate(205.24 77.8)"/><path class="cls-1" d="M-169.27,107.35a3.84,3.84,0,0,0,.52,2.52h-3.11a4,4,0,0,0,.52-2.52V94h-.3a11.46,11.46,0,0,0-4.74.89l.89-2.3h11.55l-.82,2.3c-1.11-.67-2.22-.89-4.59-.89v13.39Z" transform="translate(205.24 77.8)"/><path class="cls-1" d="M-158.69,101.73v5.62a3.84,3.84,0,0,0,.52,2.52h-3.11a4,4,0,0,0,.52-2.52V95.14a4,4,0,0,0-.52-2.51h3.11a3.94,3.94,0,0,0-.52,2.51v5.18h8.21V95.14a4,4,0,0,0-.51-2.51h3.1a4,4,0,0,0-.51,2.51v12.21a3.91,3.91,0,0,0,.51,2.52H-151a4,4,0,0,0,.51-2.52v-5.7h-8.21Z" transform="translate(205.24 77.8)"/><path class="cls-1" d="M-136.79,110.24c-5,0-8.43-3.55-8.43-8.73A9,9,0,0,1-136,92.26c5,0,8.29,3.47,8.29,8.65,0,5.48-3.78,9.33-9.11,9.33m.3-16.43c-3.92,0-6.51,2.89-6.51,7.1,0,4.37,3,7.77,6.81,7.77,3.62,0,6.29-3,6.29-7.17,0-4.44-2.74-7.7-6.59-7.7" transform="translate(205.24 77.8)"/><path class="cls-1" d="M-125.54,109.87a4,4,0,0,0,.52-2.52V95.14a3.94,3.94,0,0,0-.52-2.51h3.11a4,4,0,0,0-.52,2.51v13.32h2.07a8.62,8.62,0,0,0,4.74-1.11l-1.11,2.52Z" transform="translate(205.24 77.8)"/><path class="cls-1" d="M-113.62,109.87a4,4,0,0,0,.51-2.52V95.14a4,4,0,0,0-.51-2.51h3.1a4.13,4.13,0,0,0-.51,2.51v12.21a3.91,3.91,0,0,0,.51,2.52Z" transform="translate(205.24 77.8)"/><path class="cls-1" d="M-94.53,95a7.54,7.54,0,0,0-4.22-1.11c-4,0-6.59,3-6.59,7.4s2.74,7.48,6.74,7.48a7.44,7.44,0,0,0,4.29-1.41l.07,2.3a15.51,15.51,0,0,1-4.44.66c-5.25,0-8.88-3.55-8.88-8.66A9.19,9.19,0,0,1-98,92.4a9.69,9.69,0,0,1,3.63.67Z" transform="translate(205.24 77.8)"/><path class="cls-1" d="M-82,107.35a4.18,4.18,0,0,0,.52,2.52h-3.11a4,4,0,0,0,.52-2.52V95.14a3.94,3.94,0,0,0-.52-2.51h3.33a7.75,7.75,0,0,1,4.74,1.18,4.11,4.11,0,0,1,1.78,3.33c0,2.15-1.56,3.85-4.3,4.81l.45.59a78.28,78.28,0,0,0,5.47,6.59,2.2,2.2,0,0,1,.45.44,2.31,2.31,0,0,1-1.19.37c-.66,0-1.85-1-3.7-3l-4.36-5v5.4Zm5.11-10.06a3,3,0,0,0-2.52-3A9.57,9.57,0,0,0-81.73,94h-.22v7c3,0,5-1.55,5-3.77" transform="translate(205.24 77.8)"/><path class="cls-1" d="M-62.64,100.25l-1.18,2.14a5.1,5.1,0,0,0-3.41-.81h-1.55v7h2.44a11,11,0,0,0,4.74-.82l-1,2.15h-8.73a4,4,0,0,0,.52-2.52V95.14a4,4,0,0,0-.52-2.51h9.55L-63,94.7c-.74-.52-1.7-.67-3.48-.67h-2.29v6.22Z" transform="translate(205.24 77.8)"/><path class="cls-1" d="M-59.16,109.87a4,4,0,0,0,.52-2.52V95.14a4,4,0,0,0-.52-2.51H-56a3.94,3.94,0,0,0-.52,2.51v13.32h2.07a8.62,8.62,0,0,0,4.74-1.11l-1.11,2.52Z" transform="translate(205.24 77.8)"/><path class="cls-1" d="M-47.32,109.87a4,4,0,0,0,.52-2.52V95.14a4,4,0,0,0-.52-2.51h3.11a4.06,4.06,0,0,0-.52,2.51v12.21a3.84,3.84,0,0,0,.52,2.52Z" transform="translate(205.24 77.8)"/><path class="cls-1" d="M-32.37,100.25l-1.19,2.14a5,5,0,0,0-3.33-.81h-1.55v7H-36a11,11,0,0,0,4.74-.82l-1,2.15h-8.8a4,4,0,0,0,.51-2.52V95.14a4,4,0,0,0-.51-2.51h9.54l-1.18,2.07c-.74-.52-1.7-.67-3.48-.67h-2.29v6.22Z" transform="translate(205.24 77.8)"/><path class="cls-1" d="M-26.16,107.35a3.9,3.9,0,0,0,.52,2.52h-3.11a4,4,0,0,0,.52-2.52V95.14a3.94,3.94,0,0,0-.52-2.51h9.55l-1.18,2.22a4.75,4.75,0,0,0-3-.82h-2.74v6.37h6.07l-1.18,2.07a4.24,4.24,0,0,0-2.67-.67h-2.22v5.55Z" transform="translate(205.24 77.8)"/><path class="cls-1" d="M-2.33,94.92a5.57,5.57,0,0,0-3.25-1.11A2.55,2.55,0,0,0-8.4,96.4a3,3,0,0,0,.67,1.92,11.38,11.38,0,0,0,2.44,2,9.68,9.68,0,0,1,2.52,1.85,4.61,4.61,0,0,1,1.18,3c0,2.88-2.44,5.1-5.7,5.1a8.24,8.24,0,0,1-3.18-.66v-2.52a5.07,5.07,0,0,0,3.63,1.63,3.3,3.3,0,0,0,3.25-3.33c0-1.48-.37-1.93-3-3.63a11.41,11.41,0,0,1-2.66-2.07,4.12,4.12,0,0,1-1.26-2.89c0-2.66,2.22-4.51,5.48-4.51a10.61,10.61,0,0,1,2.66.37v2.22Z" transform="translate(205.24 77.8)"/><path class="cls-1" d="M9.73,100.25l-1.18,2.14a5,5,0,0,0-3.33-.81H3.67v7H6.11a10.92,10.92,0,0,0,4.73-.82l-1,2.15H1.08a4,4,0,0,0,.51-2.52V95.14a4,4,0,0,0-.51-2.51h9.54L9.44,94.7C8.7,94.18,7.74,94,6,94H3.67v6.22Z" transform="translate(205.24 77.8)"/><path class="cls-1" d="M15.65,107.35a4.18,4.18,0,0,0,.52,2.52H13.06a4,4,0,0,0,.52-2.52V95.14a3.94,3.94,0,0,0-.52-2.51h3.33a7.75,7.75,0,0,1,4.74,1.18,4.11,4.11,0,0,1,1.78,3.33c0,2.15-1.56,3.85-4.3,4.81l.45.59a78.28,78.28,0,0,0,5.47,6.59,2.2,2.2,0,0,1,.45.44,2.31,2.31,0,0,1-1.19.37c-.66,0-1.85-1-3.7-3l-4.36-5v5.4Zm5.11-10.06a3,3,0,0,0-2.52-3A9.57,9.57,0,0,0,16,94h-.22v7c3,0,5-1.55,5-3.77" transform="translate(205.24 77.8)"/><path class="cls-1" d="M30.31,109.87,25.2,96a17.21,17.21,0,0,0-1.63-3.33h3v.59a7.17,7.17,0,0,0,.59,2.59l4,11.1L35.12,96a6.17,6.17,0,0,0,.51-2.29,2.85,2.85,0,0,0-.14-1h3a20.76,20.76,0,0,0-1.56,3.48l-5.1,13.76H30.31v-.07Z" transform="translate(205.24 77.8)"/><path class="cls-1" d="M40.3,109.87a4,4,0,0,0,.51-2.52V95.14a4,4,0,0,0-.51-2.51h3.1a4.13,4.13,0,0,0-.51,2.51v12.21a3.91,3.91,0,0,0,.51,2.52Z" transform="translate(205.24 77.8)"/><path class="cls-1" d="M58.72,95a7.54,7.54,0,0,0-4.22-1.11c-4,0-6.58,3-6.58,7.4s2.74,7.48,6.73,7.48A7.85,7.85,0,0,0,59,107.35l.07,2.3a15.51,15.51,0,0,1-4.44.66c-5.25,0-8.88-3.55-8.88-8.66a9.19,9.19,0,0,1,9.55-9.25,9.64,9.64,0,0,1,3.62.67Z" transform="translate(205.24 77.8)"/><path class="cls-1" d="M70,100.25l-1.18,2.14a5.13,5.13,0,0,0-3.41-.81H63.83v7h2.44a11,11,0,0,0,4.74-.82l-1,2.15H61.24a4,4,0,0,0,.52-2.52V95.14a4,4,0,0,0-.52-2.51h9.54L69.6,94.7c-.74-.52-1.7-.67-3.48-.67H63.83v6.22Z" transform="translate(205.24 77.8)"/><path class="cls-1" d="M81.07,94.92a5.57,5.57,0,0,0-3.26-1.11A2.55,2.55,0,0,0,75,96.4a3,3,0,0,0,.67,1.92,11.12,11.12,0,0,0,2.44,2,9.87,9.87,0,0,1,2.52,1.85,4.61,4.61,0,0,1,1.18,3c0,2.88-2.44,5.1-5.7,5.1a8.24,8.24,0,0,1-3.18-.66v-2.52a5.05,5.05,0,0,0,3.63,1.63,3.3,3.3,0,0,0,3.25-3.33c0-1.48-.37-1.93-3-3.63a11.41,11.41,0,0,1-2.66-2.07,4.08,4.08,0,0,1-1.26-2.89c0-2.66,2.22-4.51,5.48-4.51a10.61,10.61,0,0,1,2.66.37v2.22Z" transform="translate(205.24 77.8)"/><path class="cls-1" d="M-25.79,7.82a42.41,42.41,0,0,0-21.75-5.4c-20.2,0-32.93,13.91-32.93,35.15,0,20.79,13.69,35.37,33.59,35.37,8,0,14.43-2,22.06-6.73v11a84.11,84.11,0,0,1-22.43,3.11c-26.64,0-45-16.87-45-41.22C-92.24,14-71.52-5-44-5a54.64,54.64,0,0,1,18.2,3V7.82Z" transform="translate(205.24 77.8)"/><path class="cls-1" d="M-6.47,36.68V3.23h1c5.92,0,7.85.15,11.7,1,7.84,1.55,12.87,7.1,12.87,14.5-.07,10.58-10.43,17.83-25.6,18M24.31,62.14A117.34,117.34,0,0,1,8.48,40.83C22.61,36.16,30.38,28,30.38,18c0-6.29-3.18-11.77-8.95-15.69C15.36-1.65,8.7-3.28-2.55-3.28h-17C-17.35.27-17,2.35-17,8.64v58c0,6.37-.37,8.36-2.59,11.92H-3.81C-5.88,74.87-6.4,73-6.4,66.65V40.83s15.54,19.68,19,23.45c6.44,6.89,18.8,18.5,40.18,17.1C69,80.27,81.51,70.94,81.51,57.25a20.26,20.26,0,0,0-6.14-14.5c-2.59-2.59-5-4.22-12.73-8.58-7.17-4.3-10-6.37-12.43-9.33A13.88,13.88,0,0,1,47,15.89C47,8.41,52.51,3.6,61.09,3.6c5.92,0,10.73,1.56,16.5,5.11V-2.09A54.11,54.11,0,0,0,64.12-3.8c-16.28,0-27.67,8.88-27.67,21.39,0,5,2.22,9.69,6.29,13.62,3,3.1,6.29,5.69,13.39,9.84,12.21,7.1,15,9.69,15.1,17.24C71.3,66.13,64,74,54.87,74.87c-11.54,1.11-21.16-3-30.56-12.73" transform="translate(205.24 77.8)"/><path class="cls-1" d="M-111.7-77.2c-.44.29-1.55.74-3.11,1.55-4.07,2.22-9.17,5.48-17.91,12.73-18.87,15.61-44.77,42.62-48.69,79.7-3.85,36.63,6.81,50.09,17.69,52.68,10.73,2.59,33.59-7.1,44.84-28.71,12.29-23.68,6.88-53.35,4.81-62-1.7-7-3.18-11.4-3.55-18.28-.59-10.21,5.62-24,9.18-28.86,1.92-2.66,5.55-3.7,7.17,1.41C-93.94-44.64-89,3.6-111.33,40.53c-22.13,36.56-49.51,44.4-67.19,40.26-15.17-3.56-29.16-19.32-25.61-50.25s18.5-51.95,28.94-64c28-32.34,59.05-43.81,63.19-44.33.52-.07.67.37.3.6" transform="translate(205.24 77.8)"/><path class="cls-1" d="M-147.37,32.54c-9.91,2.22-15.09,7.62-17,10-4.66,5.55-7.55,14.87-1.63,19.9,5.63,4.81,13,1,17.69-2.51,3.85-3,9.32-9.33,13.76-17.76,3.63-7,6.22-12.73,7-15.84a6.44,6.44,0,0,0,.22-3c-.37-1.11-1.4-1.19-2.44-.08l-1,1.26c-2.36,3-6.66,5.92-16.5,8.07" transform="translate(205.24 77.8)"/><path class="cls-1" d="M82.25,77.68a3.73,3.73,0,0,1-1,2.59,3.41,3.41,0,0,1-2.59,1,3.71,3.71,0,0,1-2.59-1,3.42,3.42,0,0,1-1-2.59,3.68,3.68,0,0,1,1-2.59,3.4,3.4,0,0,1,2.59-1,3.82,3.82,0,0,1,2.59,1,3.57,3.57,0,0,1,1,2.59m-.88,0a3,3,0,0,0-.82-2,2.53,2.53,0,0,0-3.85,0,2.87,2.87,0,0,0,0,4,2.55,2.55,0,0,0,3.85,0,3,3,0,0,0,.82-2m-2.3,1.85v-.67a2.07,2.07,0,0,0-.15-.74.4.4,0,0,0-.44-.29h-.3v1.7H77.3V75.61h1.48a1.37,1.37,0,0,1,.88.22.66.66,0,0,1,.3.59v.3a1,1,0,0,1-.15.51,1.44,1.44,0,0,1-.44.3,1.59,1.59,0,0,1,.59.59,2.31,2.31,0,0,1,.15.67v.66h-1Zm.08-2.67h0v-.14c0-.15-.08-.23-.08-.3a.39.39,0,0,0-.29-.15h-.6v1h.6c.14,0,.22,0,.29-.08s.08-.22.08-.37" transform="translate(205.24 77.8)"/><path class="cls-2" d="M115.41,9.6V20.85c0,4.36.22,4.36,4.51,4.58v1.48l-7.55-.22-6.29.22V25.43c3.41-.14,3.33-1.18,3.33-4.29V9.6H106.3V7.75h3.11V4.49a9.47,9.47,0,0,1,1.41-5.7c1.77-2.44,5.1-3.1,8-3.1,2.15,0,5.85.66,5.85,3.47a2.5,2.5,0,0,1-2.45,2.59c-3.1,0-2.36-4.21-4.58-4.21-1.56,0-2.15,1.7-2.15,2.88v7.4h5.7V9.67h-5.77Z" transform="translate(205.24 77.8)"/><path class="cls-2" d="M142.71,24.55c-1,1.77-3.62,2.88-5.55,2.88a3.72,3.72,0,0,1-4-3.11,9.4,9.4,0,0,1-6.52,3.11,5,5,0,0,1-5.32-5c0-4.58,5.18-6.14,9.25-7.69,1.4-.52,2.59-.52,2.59-2.3,0-2-.15-4.07-2.67-4.07-1.77,0-2.29.74-2.88,2.3s-1.19,2.88-3,2.88a2.44,2.44,0,0,1-2.51-2.51c0-3.92,6.06-4.59,8.88-4.59,4,0,8.21,1,8.21,5.7v9.4c0,.81,0,2.36,1,2.36a2,2,0,0,0,1.56-.66Zm-9.54-9c-2.3,1-5.33,2.3-5.33,5.18,0,1.48.59,3.11,2.29,3.11A3.25,3.25,0,0,0,133.24,21v-5.4Z" transform="translate(205.24 77.8)"/><path class="cls-2" d="M151.67,21.14c0,.82,0,2.89.44,3.48a3.26,3.26,0,0,0,2.44.81v1.48l-5.7-.22-6.21.22V25.43a3.26,3.26,0,0,0,2.44-.81c.44-.59.44-2.66.44-3.48v-8c0-2.74-.51-3.77-3-3.77V7.82a56.77,56.77,0,0,0,9-1.4V21.14Zm-7-22a3.47,3.47,0,0,1,3.47-3.47,3.37,3.37,0,0,1,3.41,3.47A3.43,3.43,0,0,1,148,2.57a3.58,3.58,0,0,1-3.33-3.41" transform="translate(205.24 77.8)"/><path class="cls-2" d="M162.17,9.15V20.77c0,1.78,0,3.85,1.63,3.85a3.65,3.65,0,0,0,2.74-1.78l1.55,1a7.27,7.27,0,0,1-6.51,3.48c-4.51,0-5.47-2.67-5.47-6.66V9.08h-2.52V7.67A9.23,9.23,0,0,0,160.18.94h2V7.23h4.67V9.08h-4.67v.07Z" transform="translate(205.24 77.8)"/><path class="cls-2" d="M177.12,10.26h.08a7.7,7.7,0,0,1,7-3.77c3.33,0,6.37,1.92,6.37,5.55v9.1c0,.82,0,2.89.44,3.48a3.26,3.26,0,0,0,2.44.81v1.48l-5.4-.22-6.44.22V25.43a3.24,3.24,0,0,0,2.44-.81c.45-.59.45-2.66.45-3.48V13.59c0-2-.67-4.14-3.11-4.14-2.81,0-4.22,3.4-4.22,5.7v5.92c0,.81,0,2.88.45,3.48a3.28,3.28,0,0,0,2.44.81v1.48l-5.92-.22-5.92.22V25.36a3.3,3.3,0,0,0,2.44-.81c.44-.6.44-2.67.44-3.48V2c-.07-2.52-.29-3.26-3-3.56V-3l9-1.41V10.26Z" transform="translate(205.24 77.8)"/><path class="cls-2" d="M193.92,23.36a3.67,3.67,0,0,1,3.7-3.7,3.71,3.71,0,0,1,3.77,3.63,3.8,3.8,0,0,1-3.77,3.85,3.73,3.73,0,0,1-3.7-3.78" transform="translate(205.24 77.8)"/><path class="cls-3" d="M128.65,66.5c-1,1.78-3.62,2.89-5.55,2.89a3.73,3.73,0,0,1-4-3.11,9.24,9.24,0,0,1-6.52,3.11,5,5,0,0,1-5.32-5c0-4.59,5.25-6.14,9.25-7.69,1.4-.52,2.59-.52,2.59-2.3,0-2-.15-4.07-2.67-4.07-1.77,0-2.29.74-2.88,2.3s-1.19,2.88-3,2.88A2.44,2.44,0,0,1,108,53c0-3.93,6.06-4.59,8.88-4.59,4,0,8.21,1,8.21,5.7v9.39c0,.82,0,2.37,1,2.37a2,2,0,0,0,1.56-.66Zm-9.47-9c-2.29,1-5.33,2.29-5.33,5.18,0,1.48.59,3.11,2.3,3.11a3.25,3.25,0,0,0,3.1-2.89v-5.4Z" transform="translate(205.24 77.8)"/><path class="cls-3" d="M146.49,64.73a10.34,10.34,0,0,1-8.88,4.59c-6.07,0-10.22-4-10.22-10.14,0-6.66,5.18-10.73,11.55-10.73,2.51,0,7.32,1.18,7.32,4.44a2.46,2.46,0,0,1-2.36,2.51c-3.7,0-2.37-5.1-5.63-5.1-3.7,0-4.14,5.47-4.14,8.14,0,3.77.89,8.29,5.55,8.29,2.44,0,3.85-1.56,5.4-3.26Z" transform="translate(205.24 77.8)"/><path class="cls-3" d="M154.85,51V62.66c0,1.77,0,3.84,1.63,3.84a3.62,3.62,0,0,0,2.73-1.77l1.56,1a7.28,7.28,0,0,1-6.51,3.48c-4.52,0-5.48-2.66-5.48-6.66V51h-2.52V49.63a9.2,9.2,0,0,0,6.59-6.73h2v6.29h4.66V51Z" transform="translate(205.24 77.8)"/><path class="cls-3" d="M169.8,63.1c0,.81,0,2.89.44,3.48a3.3,3.3,0,0,0,2.44.81v1.48l-5.7-.22-6.21.22V67.39a3.3,3.3,0,0,0,2.44-.81c.44-.59.44-2.67.44-3.48v-8c0-2.74-.51-3.78-3-3.78V49.78a55.44,55.44,0,0,0,9-1.41V63.1Zm-7.11-22.05a3.48,3.48,0,0,1,3.48-3.48,3.36,3.36,0,0,1,3.4,3.48,3.42,3.42,0,0,1-3.55,3.4,3.54,3.54,0,0,1-3.33-3.4" transform="translate(205.24 77.8)"/><path class="cls-3" d="M194.29,58.81c0,6.14-5,10.51-10.95,10.51-6.07,0-11.4-4.15-11.4-10.59,0-6.06,5.55-10.36,11.25-10.36,6,.08,11.1,4.3,11.1,10.44m-15.61-.08c0,3.41.29,8.74,4.95,8.74,3.85,0,4-5.85,4-8.51,0-3.11-.15-8.74-4.37-8.74-4.07.08-4.58,5.48-4.58,8.51" transform="translate(205.24 77.8)"/><path class="cls-3" d="M202.87,63.1c0,.81,0,2.89.45,3.48a3.3,3.3,0,0,0,2.44.81v1.48l-5.92-.22-5.85.22V67.39a3.32,3.32,0,0,0,2.45-.81c.44-.59.44-2.67.44-3.48V56.51c0-2.51.07-4.73-3-4.73V50.22a30.9,30.9,0,0,0,8.51-1.77l.52,4.14c1.7-2.37,3.85-4.14,6.81-4.14a7,7,0,0,1,5.47,2.37c1.19,1.55,1.11,4.21,1.11,6.14V63c0,.81,0,2.88.45,3.47a3.25,3.25,0,0,0,2.44.82V68.8l-5.4-.22-6.44.22V67.24a3.21,3.21,0,0,0,2.44-.74c.44-.59.44-2.66.44-3.47V57.25c0-2.14.15-5.84-3-5.84-1.77,0-3,1.33-3.77,2.88-.67,1.34-.59,3.33-.59,4.81v4Z" transform="translate(205.24 77.8)"/><path class="cls-3" d="M219.6,65.32a3.68,3.68,0,0,1,3.77-3.7,3.64,3.64,0,0,1,3.7,3.63,3.79,3.79,0,0,1-3.7,3.84,3.74,3.74,0,0,1-3.77-3.77" transform="translate(205.24 77.8)"/><path class="cls-4" d="M106.67,91.22l8.44-1.78.3,4.52h.07c1.11-2.15,3.26-4.52,5.85-4.52A3.49,3.49,0,0,1,124.8,93a2.37,2.37,0,0,1-2.66,2.36c-2.52,0-2.15-2-3.63-2-2.51,0-2.81,4.44-2.81,6.06V104c0,3.41,0,4.37,3.26,4.29v1.48l-6.44-.22-5.77.22v-1.48a3.26,3.26,0,0,0,2.44-.81c.44-.59.44-2.66.44-3.48V96.55c0-2.89-.66-3.63-3-3.85V91.22Z" transform="translate(205.24 77.8)"/><path class="cls-4" d="M130.72,99.06c-.07,4.07,1.19,8.66,6.07,8.66,2.67,0,3.85-1.26,5.63-3.11l1.4,1.19a10.21,10.21,0,0,1-8.8,4.51c-6.07,0-10.73-3.85-11-10.14s4.59-10.8,10.88-10.8c5,0,9.4,3.4,9.4,8.51,0,1.26-.74,1.11-1.85,1.11H130.72Zm6.22-1.77c1,0,1.33-.3,1.33-1.26,0-2.15-1.26-4.66-3.7-4.66-2.81,0-3.7,3.48-3.77,5.92Z" transform="translate(205.24 77.8)"/><path class="cls-4" d="M146.78,109.79h-1.85l-.22-6.29h1.85c1.26,2.59,3.11,5,6.29,5,1.78,0,3.63-.89,3.63-2.89s-2.74-2.66-4.22-3.11c-3.7-1.11-7-2.51-7-7,0-4.22,3.48-6.15,7.32-6.15A9.32,9.32,0,0,1,158,91.07l.81-1.63h1.85v6.07h-1.85c-1-2.22-2.74-4.22-5.33-4.22-1.4,0-3.25.67-3.25,2.37,0,2,2.22,2.37,3.77,2.89,3.7,1.18,7.7,2.44,7.7,7.18s-3.85,6.66-8,6.66a9.53,9.53,0,0,1-6.06-2Z" transform="translate(205.24 77.8)"/><path class="cls-4" d="M186.52,109.87h-7.84l-.45-4h-.07c-1.93,3-4.29,4.52-7.92,4.52-4.59,0-5.85-2.82-5.85-6.81V96.1c0-.81.08-2.88-.44-3.47s-1.7-.67-2.44-.74V90.33l8.88-.52v12.58c0,2.37.22,5,3.11,5,3.47,0,4.21-3.4,4.21-6.44V96c0-.81,0-2.89-.44-3.48s-1.7-.66-2.44-.74V90.26l8.88-.52v13.32a9.17,9.17,0,0,0,.44,3.18c.3.67,1,2.07,2.22,2.07v1.56Z" transform="translate(205.24 77.8)"/><path class="cls-4" d="M190.15,85.37c0-2.51.07-3.62-3-3.92V79.9l9-1.41V104c0,3-.29,4.15,3,4.29v1.48l-5.85-.22-6.51.22v-1.48c3.48-.07,3.33-1,3.33-4.29V85.37Z" transform="translate(205.24 77.8)"/><path class="cls-4" d="M207.17,92.11v11.62c0,1.77,0,3.84,1.62,3.84a3.62,3.62,0,0,0,2.74-1.77l1.56,1a7.29,7.29,0,0,1-6.52,3.48c-4.51,0-5.47-2.66-5.47-6.66V92h-2.52v-1.4a9.2,9.2,0,0,0,6.59-6.74h2v6.29h4.66V92h-4.66v.08Z" transform="translate(205.24 77.8)"/><path class="cls-4" d="M215.53,109.87h-1.85l-.22-6.29h1.85c1.25,2.59,3.1,5,6.29,5,1.77,0,3.62-.89,3.62-2.89s-2.74-2.66-4.22-3.1c-3.7-1.11-7-2.52-7-7,0-4.22,3.48-6.14,7.33-6.14a9.27,9.27,0,0,1,5.4,1.63l.82-1.63h1.85v6.07h-1.85c-1-2.22-2.74-4.22-5.33-4.22-1.41,0-3.26.66-3.26,2.37,0,2,2.22,2.36,3.78,2.88,3.77,1.19,7.69,2.44,7.69,7.18s-3.85,6.66-8,6.66a9.5,9.5,0,0,1-6.07-2Z" transform="translate(205.24 77.8)"/><path class="cls-4" d="M231.22,106.39a3.77,3.77,0,0,1,7.54-.07,3.79,3.79,0,0,1-3.77,3.84,3.69,3.69,0,0,1-3.77-3.77" transform="translate(205.24 77.8)"/></svg>