<svg id="Layer_1" data-name="Layer 1" xmlns="http://www.w3.org/2000/svg" xmlns:xlink="http://www.w3.org/1999/xlink" width="99.6" height="74.5" viewBox="0 0 99.6 74.5"><defs><style>.cls-1{fill:#dd3432;}.cls-2{fill:#00213d;}.cls-3{fill:url(#linear-gradient);}.cls-4{fill:url(#linear-gradient-2);}</style><linearGradient id="linear-gradient" x1="13.81" y1="1189.8" x2="15.81" y2="1223.06" gradientTransform="translate(0 -1210.77)" gradientUnits="userSpaceOnUse"><stop offset="0" stop-color="#fdc20f"/><stop offset="0.21" stop-color="#f7a81b"/><stop offset="0.68" stop-color="#eb6a23"/><stop offset="1" stop-color="#e42b25"/></linearGradient><linearGradient id="linear-gradient-2" x1="15.73" y1="1192.6" x2="16.03" y2="1222.33" gradientTransform="translate(0 -1210.77)" gradientUnits="userSpaceOnUse"><stop offset="0.23" stop-color="#fed900"/><stop offset="0.34" stop-color="#fcca0c"/><stop offset="0.58" stop-color="#f7a21c"/><stop offset="0.92" stop-color="#f16322"/><stop offset="1" stop-color="#f04f23"/></linearGradient></defs><rect class="cls-1" x="51.3" y="52.9" width="19.8" height="6.1"/><path class="cls-2" d="M58.64,33.24c0,7.7-6.6,14.1-14.9,14.1s-14.9-6.3-14.9-14.1,6.6-14.1,14.9-14.1a15.51,15.51,0,0,1,9.3,3.1v-7.5a22.17,22.17,0,0,0-9.3-2c-11.9,0-21.6,9.2-21.6,20.4s9.7,20.4,21.6,20.4,21.6-9.2,21.6-20.4a3.75,3.75,0,0,0-.1-1.1h-6.7A4.48,4.48,0,0,1,58.64,33.24Z" transform="translate(34.26 20.96)"/><rect class="cls-2" x="22.6" y="52.9" width="19.8" height="6.1"/><path class="cls-1" d="M30.84,33.24c0,7.7-6.6,14.1-14.9,14.1S1,41,1,33.24s6.7-14.1,14.9-14.1a15.51,15.51,0,0,1,9.3,3.1v-7.5a22.17,22.17,0,0,0-9.3-2c-11.9,0-21.6,9.2-21.6,20.4s9.7,20.4,21.6,20.4,21.6-9.2,21.6-20.4a3.75,3.75,0,0,0-.1-1.1h-6.7C30.74,32.44,30.84,32.74,30.84,33.24Z" transform="translate(34.26 20.96)"/><path class="cls-2" d="M2.24,33.24c0,7.7-6.6,14.1-14.9,14.1s-14.9-6.3-14.9-14.1,6.7-14.1,14.9-14.1a15.51,15.51,0,0,1,9.3,3.1v-7.5a22.17,22.17,0,0,0-9.3-2c-11.9,0-21.6,9.2-21.6,20.4s9.7,20.4,21.6,20.4,21.6-9.2,21.6-20.4a3.75,3.75,0,0,0-.1-1.1H2.14C2.14,32.44,2.24,32.74,2.24,33.24Z" transform="translate(34.26 20.96)"/><path class="cls-3" d="M16,11.94a10.41,10.41,0,0,1-6.9-3.6,10.36,10.36,0,0,1-2.8-6.6c-.1-2.9,1.3-5.8,3-8.1s3.4-4,4.8-6.8a7.2,7.2,0,0,0-.7-7.8,11,11,0,0,1,3.5,2,6.82,6.82,0,0,1,2.2,3.6,11,11,0,0,1,.3,3.6,10.63,10.63,0,0,0-.1,3.6c.5,2.7,2.4,4.3,3.7,6.9a9.65,9.65,0,0,1,.4,7.8,9.64,9.64,0,0,1-7.4,5.4Z" transform="translate(34.26 20.96)"/><path class="cls-4" d="M16,11.74c-3.9-1.6-7.2-5.4-6.8-10s4.1-8.8,6.4-12.7c.9-1.6,1.8-5,.3-7.1,3.8,3.6,2.3,8.1,1.4,12.8a3.77,3.77,0,0,0,1,3.6,3.35,3.35,0,0,1,1.5-3.6,4.15,4.15,0,0,0,.3,3.6c.6,1.3,1.5,2.4,2.1,3.7,1.1,2.7.1,5.3-2.2,7.4a17.4,17.4,0,0,1-4,2.3Z" transform="translate(34.26 20.96)"/></svg>