<svg id="Layer_1" data-name="Layer 1" xmlns="http://www.w3.org/2000/svg" width="2279.42" height="526.43" viewBox="0 0 2279.42 526.43"><defs><style>.cls-1{fill:#255398;}.cls-1,.cls-2,.cls-3,.cls-4,.cls-5{fill-rule:evenodd;}.cls-2{fill:#0097d5;}.cls-3{fill:#d9783e;}.cls-4{fill:#2f9c5c;}.cls-5{fill:#cc2131;}</style></defs><path class="cls-1" d="M-538.38,95.49h52.75c20.58,0,28.4,7.1,28.4,24.5,0,16.75-7.83,23.84-28.4,23.84h-52.75Zm-81.73,176h81.73V199.89h87.54c58,0,78.83-34.15,78.83-78.29,0-51.24-21.46-80.24-79.43-80.24H-620.11V271.44ZM-345.06,41.37h220V97.43H-263.33v30.93h128.4v56.08h-128.4v30.93h138.25v56.07h-220ZM-9.16,95.49H43.59c20.6,0,28.42,7.1,28.42,24.5,0,16.75-7.84,23.84-28.42,23.84H-9.16Zm-81.72,176H-9.15V199.89H78.39c58,0,78.83-34.15,78.83-78.29,0-51.24-21.45-80.24-79.42-80.24H-90.88Zm327.23-97.65c-40-6.75-56.51-32.55-56.51-64.77,0-59.61,52.46-75.72,119.69-75.72,92.15,0,130.13,26.75,133.05,75.41H337.51c0-9.36-4.94-15.17-12.46-18.39-7.25-3.51-16.51-4.82-25.52-4.82-24.34,0-32.74,6.77-32.74,16.44,0,6.43,2.6,10.64,10.71,11.92L375.17,130c41.17,6.76,66.68,28,66.68,67,0,56.06-41.16,82.48-133,82.48-62.88,0-131.58-9.66-131.88-77.32h98.55c.29,7.72,2.91,12.86,8.71,16.42,6.08,3.23,15.07,4.84,27.82,4.84,25.51,0,32.48-7.73,32.48-18.69,0-6.76-3.78-13.53-14.8-15.45l-93.34-15.49ZM468.48,41.37h81.75V271.44H468.48Zm384.6,140.49c-5.21,30.3-14.48,54.78-34.78,71.54-20,16.77-51.3,26.11-101.15,26.11-49.55,0-141.42-3.88-141.42-123.08S667.6,33.33,717.15,33.33c49.27,0,125.21,7.1,135.92,98.29H760.92c-2.31-16.45-12.18-40.29-43.77-40.29-33.33,0-54.49,18.38-54.49,65.11s20.6,65.09,50.44,65.09c25.81,0,41.17-11.93,47.83-39.64h92.15v0Zm107-25.45c0-46.73,21.18-65.1,54.48-65.1s54.51,18.37,54.51,65.1-21.18,65.1-54.51,65.1S960.05,203.13,960.05,156.41Zm-86.95,0c0,119.21,91.87,123.09,141.42,123.09S1156,275.62,1156,156.41,1064.09,33.32,1014.52,33.32,873.1,37.18,873.1,156.41ZM-743.61,43.64C-738.33-66.74-833.53-191-963.29-206.42l.22-1.5c127.93,0,226,118.44,226,211.86-.13,19.46-1.66,31.5-4.41,40.26Zm-7.76,14a207.57,207.57,0,0,1-31.76,30.82C-806.2-44.2-903.72-160.26-972.66-194.13l-1.48,1c69.34,56.9,152,167.42,184.2,286.79a268.74,268.74,0,0,1-52.81,30.25C-908.18,49.32-969.18-94.58-988.84-185.88l-2,.59c.44,88.64,63.37,239.13,140.11,312.53a262.12,262.12,0,0,1-54.57,15.08c-73.57-29.15-125.93-122.48-125.93-218.09,0-62.42,19-101,22.71-108.93l-1.57-.63c-4.45,6.75-32.33,45.33-32.33,112.71,0,108.08,53.3,190.7,124.07,216.7a243.38,243.38,0,0,1-75.82-3.55l-.54,1.64c7.57,2.79,33.26,13.58,72.43,13.58,88.62,0,148.51-55.07,172.64-96.92Z" transform="translate(1123.45 246.92)"/><path class="cls-2" d="M-931.13-246.92c-67.18,0-145.95,48.48-145.95,92.8,0,17.14,15.68,31.63,48.13,31.63,75.35,0,145.36-51.76,145.36-92,0-21.18-20.35-32.41-47.54-32.41Zm26.81,31.15c0,33.93-65.15,75.41-119.62,75.41-24.06,0-37.07-9.47-37.07-25.11,0-34.42,65.9-75.19,117-75.19,33.31,0,39.7,17,39.7,24.89Z" transform="translate(1123.45 246.92)"/><path class="cls-3" d="M-1103.85-133.6c-1.89,3.27-9.45,18.08-9.45,33.24,0,28.14,28.43,54.26,80.72,54.26,100.6,0,216.82-74,216.82-142.78,0-30.86-29.21-47.63-49.48-51.09l-.39,1.19c6.3,2,29.42,12.74,29.42,40.24,0,54.76-102.62,129.38-204.84,129.38-39.13,0-63.78-19.31-63.78-47.45a55.19,55.19,0,0,1,2.35-16.47l-1.37-.52Z" transform="translate(1123.45 246.92)"/><path class="cls-4" d="M-774.28-183.73c2.76,2.1,19.32,15.9,19.32,42,0,89.05-139.5,176.6-262.84,176.6-73.56,0-107.08-36.32-105.6-68.56h1.31c2.89,16.74,26.77,46.72,91.13,46.72,123.49,0,261.37-90.6,261.37-170,0-13.62-3.7-22.12-5.78-25.88l1.09-.93Z" transform="translate(1123.45 246.92)"/><path class="cls-5" d="M-727.64-100.61a75.16,75.16,0,0,1,3.57,23.78c0,99-141.2,183.83-264,183.83-63.2,0-96.2-30.7-103.16-43.16l1.11-.83c17.49,15.3,51.92,26.91,92.13,26.91,108.44,0,270.26-82.5,268.82-190.17l1.51-.36Z" transform="translate(1123.45 246.92)"/></svg>