<svg id="Layer_1" data-name="Layer 1" xmlns="http://www.w3.org/2000/svg" width="2257.43" height="2497.38" viewBox="0 0 2257.43 2497.38"><defs><style>.cls-1{fill:#0f0e9a;}</style></defs><path class="cls-1" d="M-205.67,1201.52c19.41,0,52.79-6.3,79-48.37-15-33.37-25.7-100.8-27.24-125.34-7.74-125.58,40.65-243.71,93.62-246.95,38.81-2.34,69.87,34.4,73.44,93.9,9.52,156.48-42.56,221.81-68.63,278.12,4.41,21.85,41.42,59,76.4,59,12.91,0,28.54-6.47,32.45-11.7a128.57,128.57,0,0,1-5.23-37.57c0-90.67,58.3-167.1,108.81-167.1,40.16,0,63.45,53.1,63.45,88.14,0,41.39-35,75.14-86.75,107.53,9.09,9,25.86,15.55,40.15,15.55,73.88,0,112.55-89.4,141.19-171,5.18-15.6,14.26-37.6,32.35-37.6,31.13,0,44.11,204.66,95.79,204.66,22.06,0,40.19-45.37,40.19-80.25,0-25.91-9.06-28.51-9.06-66.1,0-41.4,22-76.34,51.86-76.34,18.12,0,24.66,18,24.66,40,0,82.91-59.63,237.07-147.62,237.07-66.17,0-61-114-84.29-114-26,0-62.28,115.28-190.4,115.28-20.83,0-42.77-10.36-60.85-31.13-31.09,20.78-57.06,29.81-86.86,29.81-47.86,0-68.59-49.22-88-49.22-23.36,0-49.18,50.54-127,50.54-62.16,0-72.54-82.84-94.49-82.84-19.47,0-49.25,82.84-81.6,82.84-54.49,0-66.05-143.77-114-143.77-37.57,0-156.25,146-188.45,142.69-13-1.35-18.41-11.06-17-24,1.81-17.91,17.24-65.87,23.52-88.58,10.47-39.38,20.08-82.55,25.45-96.34s19.73-23.78,31.26-22.7c5.82.54,7.58,11.39,9.36,20.33,6.54,32,15.69,64.69,26,64.69,18.18,0,78.28-115.29,113.22-115.29,42.82,0,47.95,181.36,106.18,181.36,19.48,0,33.77-23.26,46.68-51.83,1.33-48,14.25-116.5,53.11-116.5,27.24,0,40.22,60.81,20.71,114,0,63.42,41.42,79,68.66,79M830.47,1046.12c-16.05,66.57-64.72,164.51-137.32,164.51-16.8,0-46.63-6.51-46.63-23.36,0-18.16,114.05-20.65,114.05-107.49,0-32.34-29.77-77.73-73.83-77.73-58.28,0-115.14,63.52-115.14,151.59,0,79,49.07,104.88,98.25,104.88,85.56,0,137.32-70,164.51-128.26,13,38.85,20.68,128.26,53.16,128.26,12.91,0,22-6.5,37.62-41.42,38.72-86.84,76.32-186.54,128.18-186.54,19.38,0,7.77,35,54.39,35,22,0,37.45-18.13,37.45-39,0-29.8-27.15-53-68.57-53-121.73,0-147.59,182.62-167,182.62-32.43,0-22-146.35-45.4-146.35-20.75,0-30.91,24.71-33.69,36.27M-28.74,909.71c-2.26-36.17-11-52.51-30.45-51.21-25.8,1.57-37.73,82.74-32.45,168,3.36,55.66,11.64,64.23,19.35,63.69,14.27-.81,48.51-100.27,43.55-180.48m-210.64-76.07c-1.82-20.74-18.1-34.92-40.13-34.92-24.6,0-47.74,25.8-45.27,58.21,1.57,21.33,14.17,38.94,38.89,38.94,28.42,0,49.13-32.39,46.51-62.23M163.5,1097.87c0-22-11.71-40.1-25.85-40.1-11.78,0-38.89,12.88-38.89,54.36,0,32.49,11.56,47.9,16.82,54.49,37.51-11.67,47.92-42.84,47.92-68.75M669.85,1054c27.24,0,35,32.24,28.57,51.72s-29.8,41.5-66.08,48c-7.79-19.48-11.67-99.7,37.51-99.7M-821.52,962c-3.73-11.78-14.49-38.25-17.45-57.78-6.47-43.28,16.15-71.78,36.92-78.32,23.33-6.5,32.43,5.18,41.42,32.43,11.67,41.42,13,95.78,9.06,173.5-5.11,106.23-58.24,234.48-190.33,231.81-114-2.49-164.48-76.36-169.71-189-2.47-53.1,1.31-106.17,23.34-181.31,11.64-40.19,22.06-54.48,58.26-62.22,28.49-5.18,25.93,24.56,19.46,59.66-14.21,77.7-20.77,115.2-15.54,203.31,5.09,93.23,47.93,129.54,94.55,129.54,69.93,1.32,101-57,114-141.22,10.29-67.31,2.56-99.7-4-120.37M706.12-723.08c9,65.27,107.86,153.25,134.69,151.19,17.89-1.54,24.76-85.24,24.76-151.19,0-37.78,2.08-67.37-17.87-74.27-31.65,63.94-114.73,77-141.58,74.27M711.61-752c71.41,0,136.77-57,136.77-107.21,0-23.4-11-42.62-39.2-46.05,4.8,6.2,6.87,11,6.87,22,0,37.81-57.63,79.75-120.22,79.75-22.72,0-29.59,15.78-29.59,24,0,19.26,18.58,27.48,45.37,27.48M696.5-829.62c-9.6,0-23.39,0-31-15.1C659.34-857.11,661.4-877,649.72-886c11.68,3.42,24.07,3.42,33.72,3.42,31,0,60.56-21.29,83.24-21.29,15,0,19.78,9.65,19.78,19.23,0,30.3-61,55-90,55M-840.86-290.8c23.34,0,18.52-143,56.34-143,8.94,0,11.67,8.94,11.67,20,0,32.28-15.8,79.72-15.8,105.82,0,13.07,3.42,17.19,9.62,17.19,16.51,0,45.36-157.41,73.55-157.41,9,0,13.05,8.93,13.05,17.9,0,33-41.92,127.81-41.92,154.62,0,4.1,1.38,7.55,4.81,7.55,17.19,0,51.56-74.21,62.53-111.32,6.19-19.26,14.45-29.58,22-29.58,6.87,0,13.06,7.57,13.06,23.39,0,37.11-34.4,124.39-64.59,182.84-23.36,45.34-59.8,110.62-59.8,147,0,18.55,3.39,37.78,30.24,61.18-44-2.75-61.89-6.87-78.34-41.24C-878,110.55-669,96.12-740.55,226c-13.06-23.34-116.14-47.41-116.14-183.5,0-117.52,103.08-186.23,103.08-235.06,0-9.57-3.38-17.84-12.36-25.42-22.68-19.26-23.39-35-41.2-35-13.1,0-28.91,30.2-12.43,57,5.53,8.94,10.34,14.42,10.34,22.68,0,19.23-30.28,70.76-51.53,70.76s-37.79-52.86-37.79-138.13c0-75.6,17.16-151.87,38.46-151.87,6.2,0,8.26,4.13,8.26,9.62,0,8.94-2.74,26.8-2.74,57,0,32.32,7.55,35.09,13.74,35.09" transform="translate(1112.27 1233.71)"/><path class="cls-1" d="M-665.64-89.45c28.9,0,52.92-21.33,52.92-68.7v-70.14c0-26.78,2.07-57,20-78.34-2.06,8.94-2.06,18.58-2.06,27.49,0,59.11,33,99.68,33,156.72,0,21.26-6.19,33-22.65,33-15.85,0-14.46-14.46-17.91-14.46-2.74,0-6.87,9-6.87,18.59,0,14.42,10.32,37.11,39.17,37.11,24.77,0,44.69-22.69,44.69-48.12,0-61.81-48.11-130.57-48.11-196.52,0-28.91,7.55-48.14,13.74-63.27,0,136.8,116.15,236.43,116.15,293.45,0,13.07-9.6,23.39-24,23.39-15.84,0-23.39-12.39-23.39-22,0-4.81-.71-6.16-2.75-6.16-4.1,0-16.49,13.74-16.49,31.65,0,22.65,18.53,50.16,52.93,50.16,39.14,0,60.46-33,60.46-62.55,0-72.15-140.9-181.43-140.9-298.27,0-19.94,3.42-52.24,17.87-77-90.73,58.4-118.87,136.1-118.87,204.15,0,59.11-2.06,88.6-32.29,88.6-15.85,0-19.95-14.4-25.45-14.4-4.15,0-6.2,12.36-6.2,15.78,0,25.42,18.58,39.88,37.1,39.88M525.43-776c30.26,0,53-13.74,53-22,0-2.71-4.14-4.79-13.1-4.79s-26.82-.69-60.53-6.18c-28.9-4.84-50.91-15.81-59.17-15.81-2.74,0-4.13,1.36-4.13,3.42,0,17.88,33,45.37,83.95,45.37M375.62-863.29c8.72-5.85,47.44,3.42,97.54-21.33a36.87,36.87,0,0,1,17.85-4.8c24.1,0,17.87,27.49,39.94,27.49,17.16,0,39.2-14.45,52.27-14.45,20.5,0,50,64.62,50,94.85,0,35.08-52.8,56.36-115.42,56.36-91.31,0-146.39-79.68-146.39-131.25,0-4.13,2.1-5.51,4.16-6.87M-651.19,169.64c-22.66,5.52-59.11,41.2-59.11,97.64,0,67.33,72.18,171.13,191.07,171.13,100.31,0,125.07-69.41,125.07-116.19,0-103.79-63.89-176.65-147-176.65-45.37,0-85.92,33-85.92,81.79,0,45.4,34.35,113.42,116.15,113.42,38.49,0,61.14-27.49,61.14-59.09,0-30.94-28.17-73.52-69.4-73.52-12.39,0-21.3,8.19-21.3,21.26,0,16.48,22.68,33,50.85,33,6.87,0,12.36-1.35,15.14-2.73a16.58,16.58,0,0,1,2.06,8.25c0,15.82-15.16,25.46-38.49,25.46-35,0-68.75-26.13-68.75-67.43,0-24.69,21.32-42.57,52.23-42.57,61.18,0,97.61,54.28,97.61,108.61,0,48.75-26.78,77-81.77,77-110,0-163.58-99-139.54-199.37M80,435a27.49,27.49,0,1,0,27.5-27.51A27.57,27.57,0,0,0,80,435m53.28,137.36c32.94,0,31.25-2.75,41.57-2.75s11,6.19,11,10.33c0,15.12-33.72,33.72-93.49,33.72-35.07,0-56.36-18.6-62.55-39.21-34.33,22-86.57,41.91-138.13,41.91-140.87,0-176.62-61.2-220.6-81.08-33.72-15.13-85.25,14.46-157.39-66,9.62,2.07,22.68,2.77,33,2.77,63.18,0,96.85-30.91,96.85-80.43a172.94,172.94,0,0,0-1.38-19.14c19.26,7.55,63.27,40.49,73.57,98.86,1.38,6.9,29.55,13.07,47.39,13.07,24.78,0,56.4-10.32,61.18-50.82C-93.13,426.7-37.44,377.92-25.75,316c29.52,9.64,63.17,36.46,71.43,50.23Q63.2,360,86.91,360.05c22,0,46.76,4.13,76.29,13.09,1.38-9,2.77-20,16.51-20,20.61,0,15.1,22.68,22,35.68,3.46,6.87,20.68,11,20.68,24.76,0,13.08-11.06,17.89-17.89,17.89a30.07,30.07,0,0,1-8.29-1.35C182.46,435,181.78,533.9,124,533.9c-42.6,0-81.76-35-99-79C20.23,441.84,10,433.58.31,433.58c-11,0-17.15,2.07-30.19,16.52-37.11,40.49-99,75.54-175.26,75.54-23.4,0-41.92-2.07-46.76-2.07-2.74,0-2.74.67-2.74,1.36,0,4.83,23.36,23.42,74.24,23.42,120.94,0,150.52-68.08,169.75-68.08,2.74,0,11,0,15.77,11,28.17,65.91,89.72,81.05,128.21,81.05M550.18,134.58c-14.41,0-94.26,106.53-145.67,106.53-12.39,0-22.69-23.39-22.69-41.18,0-9.64,6.14-16.51,28.21-21.32,118.16-26.85,92-115.51,193-115.51,55.66,0,117.57,37.82,117.57,123.06,0,90.73-129.12,203.4-148.39,203.4-15.83,0-33-22.65-33-37.78,0-4.77,2.07-11,15.81-16.49,65.89-26.17,103.67-86.6,103.67-117.57,0-6.87-3.42-13.65-12.39-13.65-11.64,0-61.7,114-117.42,114-38.51,0-77.72-35-77.72-51.53,0-27.49,111.41-78.35,111.41-116.87,0-14.45-6.85-15.12-12.35-15.12M624.31,92c-9.62,0-19.91,7.58-19.91,26.17,0,20.55,15.81,33.61,24.75,37.75A42.55,42.55,0,0,0,649,161.42c20,0,35.78-5.52,35.78-22,0-21.25-30.94-47.41-60.49-47.41M-659.44-703.87a27.62,27.62,0,0,0,27.52,27.53,27.58,27.58,0,0,0,27.45-27.53,27.57,27.57,0,0,0-27.45-27.48,27.59,27.59,0,0,0-27.52,27.48m-35.72-61.84a27.57,27.57,0,0,0,27.46,27.48,27.6,27.6,0,0,0,27.52-27.48,27.61,27.61,0,0,0-27.52-27.5,27.58,27.58,0,0,0-27.46,27.49m-24.75,188.3c-15.84,4.14-48.79,23.4-48.79,57.73,0,24.75,19.2,40.55,43.3,40.55,12.37,0,21.3-2.74,26.78-6.87-19.22-18.55-26.09-39.17-26.09-59.76,0-14.45,2.07-23.39,4.8-31.65m-168.35,9.65a51.82,51.82,0,0,0-.69,10.3c0,32.29,17.16,50.16,39.85,50.16,17.14,0,37.11-10.32,55-33a145.61,145.61,0,0,1-24.75,2c-25.39,0-52.89-6.8-69.36-29.49m-24.07,61.14c0,52.24,15.81,77,44,77,22,0,51.56-15.81,86.57-46.05-26.79,6.21-47.4,10.29-66,10.29-24.75,0-44-9.6-64.59-41.22m178-274.91a135.25,135.25,0,0,0,6.16-39.85c0-33-15.13-83.17-61.85-83.17-26.78,0-46.07,21.3-46.07,46.75,0,54.31,54.31,76.27,101.76,76.27m-58.46,173.21c-22.66,0-47.4-28.17-47.4-53.6,0-13.75,10.29-30.94,17.87-30.94,2.75,0,4.14,2.07,4.8,6.9,4.14,33.65,26.11,52.91,46.76,62.5,2.08,1.38,3.42,2.07,3.42,3.46,0,4.79-13.07,11.67-25.46,11.67m63.28-83.86c4.74,6.48,17.87,14.46,17.87,19.27,0,9.61-5.52,22-16.52,22-24.07,0-43.3-36.43-43.3-57.07,0-13,7.58-14.4,17.85-14.4,4.84,0,6.87.68,10.32,2.75,6.2,3.42,6.2,17.17,13.78,27.45M-891-606.94a14.7,14.7,0,0,0-2.07,7.58c0,6.16,6.87,13,13,13,5.52,0,8.94-1.35,11.68-1.35,16.49,0,35,11.65,61.86,11.65,15.78,0,34.35-4.8,57.72-16.46C-699.32-617.27-680-678.4-680-688.73c0-13.07-10.5-11.38-19.29-23.39s-5.39-22.59-11-28.17c-3.2-3.21-13-3.43-25.45-4.8a146.46,146.46,0,0,0-15.1-.69c-22.69,0-49.56,2.77-79.72,22-59.64,38-50.86,101-60.44,116.83m228.14-27.48c-15.12,17.83-30.94,48.09-30.94,79,0,37.1,22.72,68,57.76,68,33.65,0,49.46-28.85,49.46-58.38,0-46-41.91-78.37-76.28-88.66m-147.06-132s-20,15.09-44.69,15.09c-29.52,0-52.91-22-52.91-52.88,0-21.33,11-43.29,36.42-54.31a67.57,67.57,0,0,0-.68,11.69c0,39.17,22,68.73,61.86,80.41M401.75-538.26a29,29,0,0,0,28.71,28.9,29.06,29.06,0,0,0,28.91-28.9,29,29,0,0,0-28.9-28.82,29,29,0,0,0-28.72,28.81m2.06,86.61a32.26,32.26,0,0,0,32.26,32.26,32.27,32.27,0,0,0,32.27-32.26,32.27,32.27,0,0,0-32.86-31.67,32.27,32.27,0,0,0-31.67,31.67m-99,58.43a47.54,47.54,0,0,0,47.46,47.44,47.57,47.57,0,0,0,47.46-47.44,47.56,47.56,0,0,0-47.46-47.43,47.53,47.53,0,0,0-47.46,47.44m25.43-96.9a27.55,27.55,0,0,0,27.51,27.48,27.56,27.56,0,0,0,27.5-27.48,27.58,27.58,0,0,0-27.49-27.49,27.58,27.58,0,0,0-27.52,27.48m-90,55a27.53,27.53,0,0,0,27.37,27.46,27.56,27.56,0,0,0,27.55-27.46,27.58,27.58,0,0,0-27.56-27.49,27.55,27.55,0,0,0-27.36,27.49M311-595.92A44.28,44.28,0,0,0,355-552a44.3,44.3,0,0,0,44-43.95,44.3,44.3,0,0,0-44-44,44.28,44.28,0,0,0-44,44m51.58-84.57a26.1,26.1,0,0,0,26.1,26.1h0a26.13,26.13,0,0,0,26.88-25.36,26.14,26.14,0,0,0-25.37-26.88h-1.51a26.13,26.13,0,0,0-26.13,26.13h0m-124.34,66a26.07,26.07,0,0,0,26,26.14,26.11,26.11,0,0,0,26.12-26.12,26.11,26.11,0,0,0-26.12-26.11,26.05,26.05,0,0,0-26,26.09m-3.46,89.32a41.65,41.65,0,0,0,41.35,41.94h.44a41.71,41.71,0,0,0,42-41.42v-.52a41.69,41.69,0,0,0-42-41.88,41.62,41.62,0,0,0-41.79,41.46v.42m-86.63,44c0,21.33,17.85,39.14,39.17,39.14s39.2-17.81,39.2-39.14-17.9-39.17-39.2-39.17-39.17,17.89-39.17,39.17m23.36-96.89a27.58,27.58,0,0,0,27.46,27.49,27.61,27.61,0,0,0,27.55-27.48,27.6,27.6,0,0,0-27.55-27.49,27.58,27.58,0,0,0-27.46,27.48M412.75-366.42c0-13.74,12.39-25.43,26-25.43,15.16,0,26.84,11.68,26.84,25.43,0,15.82-11.67,26.81-26.84,26.81-13.59,0-26-11-26-26.81M430.48,424c3.45,0,7.58,2,7.58,14.45,0,15.1-6.87,35-31.49,50.82-17.2,11.68-40.59,21.33-75,21.94,5.49-16.46,9.62-33.66,9.62-50.08,0-5.52-.65-9.64-1.35-15.81h9c54.31,0,77.73-21.32,81.67-21.32m5.51-68c5.59-4.72,6.87-12.36,6.87-19.94V320.16c0-19.94-30.1-31.59-71.4-31.59-50.21,0-77,22.62-77,32.26v31.66c0,13.07,30.26,26.13,67.39,26.13,29.59,0,56.43-7.54,74.16-22.71m35.74,7.58c-17.87,13.78-59.65,44.62-129.15,44.62-37.14,0-53.66-11.67-59.18-11.67-6.87,0-14.45,6.87-22,15.84-16.34,19.26-37.67,55-37.67,94.14,0,27.49,21.33,54.89,61.05,54.89,128.64,0,224.79-80.37,224.79-145.61,0-37.08-22-52.22-37.84-52.22m24.08-578c0,17.16,5.52,37.1,22.72,37.1,14.41,0,26.8-22,26.8-46,0-27.5-4.8-48.83-4.8-59.83,0-4.78,2.07-6.84,4.8-6.84,10.33.68,20,28.85,31,28.85,12.39,0,30.81-22.69,38.37-22.69,2.07,0,2.74,2.75,2.74,3.43,0,10.32-15.81,33-15.81,41.94,0,7.55,39.88,8.94,39.88,15.81,0,10.32-41.79,10.32-61.73,19.26-19.26,8.22-31,18.55-31,32.29s13.74,16.47,33,16.47c45.92,0,78.22-24.72,88.5-24.72a3.24,3.24,0,0,1,3.43,3.45c0,6.88-23.36,29.53-23.36,39.85,0,11.67,42.65,25.39,42,32.26-.67,2.07-3.45,2.75-8.25,2.75-7.59,0-19.27-2-28.24-2-5.48,0-10.29.68-12.39,3.43-4.74,5.51,1.39,41.91-8.16,41.91-9,0-32.36-81-85.15-81-7.58,0-13.07,6.16-13.07,16.49,0,27.46,26.81,59.07,52.27,74.21,11.53,7.54,30.82,15.12,30.82,19.26,0,8.2-43.88.67-43.88,14.39,0,12.39,5.5,31,5.5,42,0,3.44-.71,7.54-4.83,7.54-8.23,0-28.2-37.79-37.84-37.79-8.23,0-26.11,22.67-33.72,22.67-2,0-3.39-2.08-3.39-4.07,0-15.85,25.42-51.56,25.42-86.64,0-16.49-2.06-52.23-22-52.23C489-123.13,470.38-97,462.12-70.9c-4.81,15.11-1.36,73.53-12.37,73.53-10.31,0-7.57-39.16-21.35-39.16C418.26-36.53,396.26-18,388.67-18c-1.35,0-2.73-.71-2.73-2.07,0-8.23,19.93-35,19.93-40.55,0-10.3-45.39-11.65-45.39-19.91,0-4.8,17.88-8.26,34.39-11,34.95-6.19,86.54-31.62,86.54-67.31,0-39.87-38.56-57.07-63.83-73.59-13.08-8.22-27.51-15.07-27.51-20.59s16.51-5.51,23.39-5.51c10.28,0,20.49-.68,20.49-8.91,0-6.21-1.42-18.55-1.42-28.17,0-6.9.71-12.42,3.49-12.42,10.29,0,24.74,33.69,31.61,33.69,11,0,26.14-27.48,36.49-27.48,3.39,0,4.78,2.08,4.78,8.25,0,25.41-13.07,54.27-13.07,79.05M168-415.88c7.59,58.41,86,28.85,86,99.64,0,10.32-2.74,25.45-2.74,38.45,0,15.16,1.35,28.24,12.91,28.24s14.45-8.26,14.45-19.26-2.77-24.76-2.77-32.3c0-24.07,17.2-29.56,27.52-29.56,26.17,0,46.11,26.82,85.3,26.82-8.93,44-99.75,32.26-99.75,80.41,0,24.07,24.1,29.52,39.91,29.52,14.45,0,19.3-2.07,19.3-14.4,0-6.9-1.42-14.45-1.42-19.26a5.45,5.45,0,0,1,5.38-5.52h.16c15.13,0,89.25,56.37,89.25,73.55,0,15.78-78.28,31.6-101,31.6-6.88,0-8.26-4.8-8.26-7.55,0-4.81,11.68-19.26,11.68-27.49,0-6.16-10.3-10.3-37.84-10.3-13.07,0-22.69,1.35-22.69,11.71,0,18.52,30.27,41.21,30.27,58.37,0,13.74-8.26,22-30.27,22-18.58,0-46.63-14.45-46.63-38.5,0-19.22,19.82-38.45,19.82-50.13,0-3.46-2.62-9-10.88-9-25.45,0-32.33,67.35-122.41,74.89,14.46-13,26.82-27.46,26.82-57,0-14.45-3.43-26.17-3.43-41.94,0-20.61,9.62-30.94,23.36-30.94,25.43,0,37.79,35.71,54.33,35.71,9,0,18.59-8.2,18.59-20.58,0-52.24-100.41-44.69-100.41-118.22,0-19.94,6.85-44.66,25.43-79" transform="translate(1112.27 1233.71)"/><path class="cls-1" d="M298.57,30.82c0,9.61,6.87,17.2,16.51,17.2,11,0,17.91-9.65,17.91-20.66C333,13,319.9-7,307.5-7c-5.52,0-3.41,8.26-4.83,17.19-.69,6.85-4.1,15.1-4.1,20.61M262.82-60.58c72.2,13.74,111.4,68,111.4,118.89,0,35.07-22,67.3-60.52,67.3-35.08,0-60.38-24-60.38-62.52,0-28.86,22.53-59.09,22.53-88.64,0-11.67-3.42-23.36-13-35M171.48,56.27c6.83,6.82,8.94,13.72,8.94,20.59,0,10.32-4.82,21.32-4.82,33,0,16.47,12.37,30.92,30.21,30.92,19.29,0,32.39-15.16,32.39-32.94,0-26.14-26.91-51.57-66.72-51.57M399,12.29a40.66,40.66,0,0,1,6.87,21.94c0,19.27-13.06,37.12-13.06,57.08,0,22.69,17.19,41.21,43.2,41.21,28.21,0,47.46-22.66,47.46-49.46,0-36.43-33-67.34-84.47-70.77M188-24.19c31.64,4.13,39.22,15.13,39.22,24.1,0,15.1-13.77,19.87-26.87,19.87-9.62,0-20.61-2-32.3-2-15.13,0-30.23,3.41-42.62,17.87,8.94,1.39,22,7.55,22,21.32,0,39.85-110.67,6.85-110.67,109.28,0,54.27,56.36,113.41,141.57,113.41,44,0,72.24-14.45,72.24-31,0-13-23.36-4.12-23.36-15.12,0-4.81,8.23-13.78,8.23-21.34,0-3.35-2.74-9.55-8.23-9.55-12.42,0-35.78,19.88-83.24,19.88-37.1,0-73.54-21.26-73.54-50.14,0-6.16,2.75-9.64,6.87-9.64s9.62,2.77,14.43,2.77c4.17,0,4.84-2.77,4.84-10.33s0-28.88,13-28.88,37.82,48.14,132.73,48.14c31.51,0,92.7-6.2,115.42-26.81-.71,75.6-59.85,175.23-183.53,175.23C45.7,322.88-23.06,219.77-23.06,125c0-105.17,85.89-200.64,203.47-200.64,30.21,0,55.69,10.26,55.69,23.33,0,17.9-44.69,6.91-48.13,28.17M-256.7-809c45.37,0,65.95,39.18,65.95,83.16,0,19.22-5.46,47.43-14.4,47.43s-7.57-15.82-8.93-30.27c-1.39-18.53-4.8-22.65-11-22.65-11.71,0-19.23,27.46-19.23,52.92,0,15.78,2.75,33.67,15.1,33.67,6.87,0,13.07-3.44,17.17-7.58-2.75,31.63-26.14,59.14-59.11,59.14-60.47,0-83.15-70.82-90-112.05-36.42,38.5-70.07,66.69-130.57,66.69-56.34,0-81.79-41.23-81.79-80.4,0-11.71,4.12-41.94,18.58-41.94,17.17,0,2.08,56.33,35.72,56.33,8.25,0,23.36-6.88,31.63-29.53,4.79-13.77,7.57-28.17,7.57-40.55,0-18.59-4.14-30.23-17.85-30.23-11.71,0-26.16,8.91-31,13.71,16.52-49.5,56.37-74.92,100.32-74.92,54.33,0,83.18,48.14,83.18,101.73A135.58,135.58,0,0,1-347.43-741c23.37-38.5,55.69-68,90.73-68m-52.95,81.09c0-11.67-2.73-14.42-5.48-14.42-6.87,0-14.42,8.25-25.42,26.8,1.38,24.76,5.52,35.75,12.39,35.75,7.52,0,18.51-24.1,18.51-48.13m-94.14,28.16c7.54,0,17.19-8.25,35.07-28.16,1.38-9,1.38-17.2,1.38-27.49,0-13.74-5.52-28.87-13.74-28.87-20.65,0-30.95,55-30.95,69.46,0,8.19,4.1,15.06,8.24,15.06m112.05,61.21c17.17,0,36.39-66,36.39-107.25,0-8.94-1.35-18.54-5.48-18.54-14.45,0-38.5,68-38.5,105.14,0,14.45,3.46,20.65,7.59,20.65m-168.37-37.81c23.36,0,50.11-126.45,50.11-147.77,0-5.52-2-9.66-6.84-9.66-21.3,0-50.85,120.29-50.85,147.1,0,4.84,1.38,10.33,7.58,10.33" transform="translate(1112.27 1233.71)"/><path class="cls-1" d="M-385.23-624.15c-29.56,0-30.91,35.78-30.91,107.9-22-47.4-58.41-98.26-101-98.26-28.84,0-39.85,19.27-39.85,52.89,0,6.91.68,17.24,2.07,23.36,3.42-11.64,14.45-16.45,28.16-16.45,29.56,0,65.32,22.65,88.66,53.59-26.8-4.8-52.93-9.61-74.92-9.61-13.74,0-26.13,1.39-36.42,6.19-19.94,8.9-46.74,38.46-46.74,83.15a138.6,138.6,0,0,0,2.09,22.68c24-53.62,87.95-77.67,129.19-77.67A132,132,0,0,1-445.7-475c-21.29,19.22-26.1,52.94-27.49,75.59-.67,11-4.81,11.72-12.35,11.72,0,22.65,17.87,56.36,17.87,73.52,0,6.16-3.46,11.68-6.87,13.07,0,30.24,30.23,52.23,30.23,71.47,0,4.8-1.39,8.94-3.46,11,2.08,12.38,35.33,33.18,39.64,43.6,5.27,12.67,11.22,14.83,14.66,14.83,11.68,0,30.21-13.79,30.21-26.14,0-4.12-3.42-8.95-6.14-11-13.06-9.6-20-30.23-25.45-44-4.83,0-11.06-2-13.22-10.11-3.76-14.24-3.95-40.74-9.47-56.59-8.94-2-13.06-5.48-13.06-24,0-9,5.52-44,5.52-56.4-4.14,0-9.62-2.75-9.62-11,0-22,22-39.15,28.17-67.33,39.2,28.85,48.79,58.4,48.79,84.54,0,13.71-2.07,26.81-4.81,39.2,28.88-14.45,72.17-35.75,72.17-79.05,0-25.45-11.67-53.62-89.33-64.62,24-8.95,54.31-13.72,79.72-13.72,44,0,69.4,13.72,74.88,44.62,9-13.71,15.85-29.55,15.85-43.95,0-33.71-28.23-55.68-63.95-55.68-41.91,0-79,22-118.89,48.81,17.9-37.1,30.23-59.11,52.23-59.11a53.34,53.34,0,0,1,10.32,1.39c-8.25-30.23-39.16-59.82-55.68-59.82m1158,495.51c34.4,0,61.88,44.69,61.88,96.93,0,55.62-26.13,116.12-72.73,157.32C761.17,32.88,647.64,62.44,647.64-4.93c0-28.85,20.65-48.11,45.43-48.11q33,0,51.58,18.58c-12.39-11.67-18.58-28.2-18.58-44,0-26.18,16.52-50.21,46.66-50.21M262.82-831.7c-5.53-8.95-26-13.71-35.64-13.71-30.29,0-50.91,21.3-55,40.56a64.89,64.89,0,0,1-4.83-23.4c0-30.23,20.64-67.34,70.89-67.34,43.87,0,61,23.36,67.26,23.36,6.85,0,13.74-6.9,19.26-6.9,7.56,0,7.56,11.71,7.56,20,0,27.45-12.36,74.89-43.33,92.07-5.52-11.7-16.52-24.74-34.28-33a10.93,10.93,0,0,1-6.87-10.33c0-7.55,6.87-17.2,15-21.33M159.08-781.53c17.88,17.2,33.65,24.76,52.91,24.76,7.61,0,16.55-2,21.39-2,6.17,0,10.29,2.7,10.29,7.52,0,7.57-6.87,19.94-15.13,26.83,8.26,3.43,17.2,4.82,26.84,4.82,39.05,0,83.76-24.79,83.76-86.6,8.26,11,13.11,33.68,13.11,44,0,74.92-55,103.77-105.8,103.77-33,0-49.56-11-53.72-11-13,0-12.32,26.14-21.27,25.45-15.83-2.74-30.23-37.81-30.23-74.92,0-22,5.49-45.37,17.85-62.56m-588.3-437.08c0-4.14-20.61-8.26-48.78-8.26-44.66,0-38.49,37.14-72.82,37.14-35.75,0-26.84-38.53-72.2-38.53-27.5,0-52.89,4.84-52.89,11,0,8.26,32.29,4.83,32.29,27.52,0,24-69.4,30.94-69.4,45.36,0,4.78,5.45,6.84,12.32,6.84,15.14,0,39.18-6.85,56.38-6.85,9.64,0,18.57,2,18.57,11,0,17.19-37.13,48.14-37.13,61.88,0,4.14,3.43,5.52,6.87,5.52,13.74,0,37.11-35.07,59.11-35.07,36.42,0,12.4,77.66,32.3,77.66,20.65,0,11.71-76.31,41.24-76.31,24.1,0,41.94,52.91,58.43,52.91,4.13,0,7.58-3.41,7.58-8.25,0-14.4-20.65-44-20.65-63.21,0-11.68,8.26-17.2,19.26-17.2,15.78,0,37.11,9.62,48.75,9.62,4.14,0,8.27-1.35,8.27-6.16,0-16.49-61.15-34.36-61.15-55.66s33.65-21.32,33.65-30.94m161.53,70.11c0,12.36,43.29,39.17,63.24,39.17,11.65,0,15.09-15.81,15.09-32.33,0-20.59-8.9-21.27-26.8-21.27-22.66,0-51.53,6.2-51.53,14.43m71.49,136.06c0-41.22-111.53-116.12-112.73-148.43-.12-2.94,1.49-5.89,4-8.53,19.12-20.12,98.44-34.82,98.44-52,0-8.91-16.51-8.91-24.78-8.91-63.89,0-157.36,23.36-157.36,46,0,23.39,83.83,80.43,83.83,108.6,0,7.58-4.81,10.33-12.39,10.33-23.33,0-74.21-28.2-98.25-28.2-11,0-15.13,7.55-15.13,18.55,0,33,39.17,95.53,39.17,114.07,0,2.06-.67,4.8-3.42,4.8-12.39,0-70.76-68.7-91.4-68.7-7.56,0-8.24,10.3-8.24,25.42V-976c0,15.82-.7,25.41-8.22,25.41-17.88,0-26.17-50.16-43.29-50.16-17.89,0-21.34,89.35-38.5,89.35-20,0-2.75-98.28-22-98.28-21.3,0-45.37,65.3-60.49,65.3-5.49,0-6.85-5.52-6.85-10.33,0-19.9,11.65-52.2,11.65-71.43,0-9.65-2.74-15.14-11-15.14-21.32,0-68.08,34.37-85.92,34.37-2.75,0-6.17-1.39-6.17-4.14,0-16.48,74.89-68.71,74.89-92.07,0-22.72-103.11-7.56-103.11-33.7,0-22,73.59-44.68,73.59-67.33,0-20-87.31-28.88-121-28.88-40.59,0-62.53,4.78-62.53,16.49,0,17.88,92.09,23.39,92.09,39.17,0,15.13-95.54,55.66-95.54,79,0,20.65,134.67,1.39,134.67,22.71,0,23.36-117.48,124.36-117.48,158,0,7.58,5.52,11,13,11,35.76,0,128.49-68,154-68,8.94,0,9.64,11,9.64,20.58,0,17.9-6.2,45.37-6.2,65.31,0,15.81,4.15,26.81,17.85,26.81,25.46,0,48.82-43.3,66-43.3,22,0,9,127.13,41.95,127.13,28.17,0,39.85-137.46,57.69-137.46s32.35,39.89,48.81,39.89c20.61,0,11-69.41,33-69.41,24,0,92.73,82.47,123.7,82.47,9.6,0,13-7.58,13-17.23,0-36.39-50.82-118.84-50.82-145,0-6.87,2-8.94,9.59-8.94,26.84,0,105.18,37.11,142.29,37.11,12.38,0,20-6.87,20-15.81m-627.5-39.85c0,13.74-52.21,59.76-70.74,59.76-6.87,0-8.94-8.23-8.94-15.78,0-13.72,6.17-33,13.75-39.17,8.91-8.26,29.52-12.32,45.34-12.32,9.58,0,20.59,2,20.59,7.52m505.14,70.78c0,24,85.92,141.55,102.41,141.55,13.77,0,24-24,24-44.69a28,28,0,0,0-4.07-15.09c-12.38-17.17-99.66-85.89-118.92-85.89-2.09,0-3.46,2.07-3.46,4.12M785.1-1189.72a17,17,0,0,0,17.2,17.13,17,17,0,0,0,17.2-16.83v-.29a17,17,0,0,0-17.2-17.21,17,17,0,0,0-17.2,16.82v.38m-112,151.87c0-48.82-116.73-61.18-116.73-72.18,0-8.9,65.21-24.06,98.87-24.75-51.53-66-125-59.08-125-70.76,0-6.9,55-20.64,105.79-20.64,42.6,0,82.47,9.62,82.47,41.91,0,17.91-14.42,36.46-14.42,64,0,15.14,7.53,28.17,27.52,28.17,21.33,0,26.14-22.68,26.14-46.75,0-19.91-3.46-35-3.46-44.66,0-28.88,19.82-48.1,48-48.1,23.39,0,28.88,10.29,63.27,10.29-18.58,11-25.43,31-25.43,40.56,0,28.87,18.58,48.81,18.58,107.92,0,108.54-101.69,147-226.13,147a710.91,710.91,0,0,1-106.49-8.24c-5.48-.67-6.87-2.07-6.87-5.48,0-9,48.85-13.77,48.85-57.72,0-17.2-5.52-33.69-5.52-39.89a5.43,5.43,0,0,1,5.52-5.48c10.33,0,31,39.85,69.34,39.85,10.24,0,35.69-3.45,35.69-35m116.09-69.41c0,61.15-44.53,107.9-125.06,121,9,.66,17.23.66,25.48.66,94.1,0,128.49-42.58,128.49-78.3,0-20-11-37.82-28.91-43.29M741.9-221.4c11-34.36,24.79-58.44,47.32-95.54-22.53-11.64-82.38-36.42-82.38-77,0-47.4,59.14-84.5,71.38-84.5,5.48,0,6.87,4.8,6.87,13.74,0,24.73-11.68,64.6-11.68,85.9,0,19.23,12.39,37.82,23.39,37.82,11.67,0,44-41.24,44-81.8,0-72.89-64-94.86-83.76-94.86-18.59,0-52.27,30.24-131.36,30.24-147.7,0-181.42-146.33-181.42-210.28,0-2.74.67-3.45,1.36-3.45,3.45,0,17.9,17.91,64.65,17.91,24.07,0,46.08-6.2,81.18-6.2,82.34,0,118.81,57.07,169.71,129.87C792-540.31,865.58-509.38,865.58-422.09c0,77-81.88,119.6-101.66,202,31.5-3.39,50.08-59.8,82.37-59.8,16.52,0,24.1,13.07,24.1,33.72,0,30.21-17.19,75.6-50.23,103.77.71-2.78.71-6.19.71-10.33,0-19.22-7.55-46.68-29.59-46.68-34.24,0-45.27,37.08-64.5,68C706.84-201.44,680-264.7,631.92-303.2c-48.69-39.17-132.64-17.87-132.64-89.33,0-19.26,12.38-46.72,12.38-68.73,0-7.55-1.38-14.43-5.5-19.94,66,24.78,42.64,68.72,83.23,114.09,25.3,28.87,95.42,56.37,136,175.26a134.68,134.68,0,0,0,1.35-18.55c0-101.73-134.64-201.39-146.32-242.63,78.21,8.94,91.95,28.19,129.12,131.28,7.56,21.33,32.33,74.25,32.33,100.35M724-554.73c0-14.43-36.48-15.78-39.9-56.34-.71-6.2-2.74-17.17-10.32-17.17-12.39,0-2.78,37.79-16.52,37.79-31.6,0-41.88-61.86-53.59-61.86-2.78,0-6.05,2.08-6.05,10.33,0,7.55,1.39,12.39,1.39,21.27s-2.07,15.12-10.33,15.12c-18.58,0-35.07-43.26-50.91-43.26-3.45,0-6.87,2.06-6.87,5.49,0,8.25,13.75,23.36,13.75,30.94,0,16.48-44.7,7.54-44.7,21.29,0,6.2,6.18,8.23,14.43,8.23,14.45,0,37.17-6.16,48.85-6.16,6.87,0,17.2,1.38,17.2,10.29,0,9.61-24.76,22-24.76,30.91,0,4.13,4.14,6.16,7.56,6.16,18.58,0,51.44-32.26,74.82-32.26,4.1,0,14.4,2.06,14.4,8.26,0,8.91-23.34,24.69-23.34,37.75,0,3.45,2.07,7.58,6.2,7.58,12.3,0,28.82-32.3,52.21-32.3,9,0,22,3.45,28.9,3.45,5.53,0,7.59-3.45,7.59-5.51" transform="translate(1112.27 1233.71)"/><path class="cls-1" d="M212-966.41c11,0,13.1,26.83,15.19,42.61,1.37,8.27,2.75,8.94,6.21,8.94,8.25,0,21.29-31.62,30.1-31.62,13,0,48.15,36.42,106.6,36.42,83.12,0,161.52-58.42,161.52-161.48,0-99.63-70.17-158.06-167-158.06-46,0-79.78,22.68-97.66,22.68-10.85.67-27.37-26.79-35.63-26.79-3.41,0-6.87,6.84-6.87,18.52,0,7.59,0,31.63-8.25,31.63-16.56,0-80.44-47.4-80.44-30.23,0,15.81,42.59,63.91,42.59,76.27s-41.92,24.07-41.92,32.33c0,15.1,44.69,17.84,44.69,37.11s-46.75,34.35-46.75,48.81c0,11.65,46.75,3.41,46.75,17.84s-34.36,62.54-34.36,76.24c0,3.46.68,3.46,3.43,3.46,13,0,52.2-44.69,61.84-44.69m20-112.67c0-7.55-26.87-22-26.87-30.24,0-1.35,1.35-2.06,3.46-2.06,7.58,0,20.64,2.77,31,2.77,9,0,10.32-38.49,17.07-38.49,4.77,0,13,36.43,20.65,36.43,8.9,0,25.39-10.33,32.29-10.33,1.39,0,2.75.69,2.75,2.08,0,4.79-17.2,23.32-17.2,28.84,0,6.19,38.52,13.74,38.52,19.26,0,6.87-39.19,6.19-39.19,12.39,0,4.78,14.45,24,14.45,30.21a1.85,1.85,0,0,1-2.07,2.09c-5.51,0-26.83-9.65-33-9.65-7.54,0-19.78,28.17-26,28.17-2.08,0-3.43-2.75-3.43-6.2L243-1041.3c0-2.75-1.32-5.49-4.77-5.49-8.26,0-24.1-.71-28.94-.71-3.45,0-4.81-.68-4.81-2,0-5.52,27.55-24.76,27.55-29.56M366-948.52c-48.14,0-79.8-24-79.8-36.43,0-6.19,4.14-10.29,9.65-10.29,15.13,0,48.14,23.33,59.14,23.33,2.74,0,4.8-1.36,4.8-5.49,0-12.39-11.67-33-11.67-43.26,0-2.75,2.07-4.81,6.2-4.81,18.54,0,46.1,7.58,60.56,7.58,4.77,0,6.13-2.77,6.13-5.52,0-15.13-44.7-44.68-44.7-53.63,0-8.25,55.57-20.64,55.57-33.65,0-13.77-75.53-4.16-75.53-17.2,0-9.64,14.45-26.13,14.45-33.69,0-3.44-2.74-4.79-7.55-4.79-6.19,0-39.19,13.06-52.95,13.06-6.9,0-15.16-1.38-15.16-11,0-15.85,26.84-33,68.79-33,67.95,0,108.57,46.75,108.57,125.08,0,99-69.37,123.72-106.5,123.72m-465.3,1189c0,6.19-2.07,13.09-7.58,19.94-7.52-13.74-28.86-20.65-38.5-20.61-70.75,0-44,102.4-119.58,102.4-31.58,0-34.35-4.13-46-4.13-4.8,0-7.55,2.07-7.55,6.2,0,17.9,25.42,61.85,96.22,61.85s138.83-43.27,138.83-96.95A71.89,71.89,0,0,0-89.7,281c2.75-4.14,9.65-6.87,15.84-6.87,11,0,17.17,12.39,27.46,12.39a18.8,18.8,0,0,0,19.26-19.26c0-8.95-4.8-15.14-13.06-19.31a23.61,23.61,0,0,0,9.62-18.54c0-11.69-8.24-22.63-22-22.63-6.2,0-10.3,2.08-15.11,6.82-1.35-12.32-8.22-24-21.29-24-10.32,0-17.9,7.55-17.9,19.27,0,10.9,7.58,19.87,7.58,31.55" transform="translate(1112.27 1233.71)"/><path class="cls-1" d="M-284.18,266.58c-20.61,0-51.56-22-51.56-34.4,0-10.33,9.65-15.83,17.16-15.83,17.2,0,48.11,21.32,48.11,39.19,0,4.84-3.45,11-13.71,11M-475.93,112.63c55,13.69,82.46,43.25,87.95,78.35,5.52,33.62,12.39,61.14,25.43,74.89,17.19,19.29,50.84,36.39,80.43,36.39,24.76,0,44.63-8.17,44.63-30.87,0-24.76-33.66-80.41-83.15-80.41-4.78,0-11,.71-17.84.71-6.2,0-15.14-1.39-20.66-6.19-11-9.66-14.39-61.21-35-92.12-22.65-34.36-47.39-44-81.05-44-24,0-50.88,13.07-50.88,32.33,0,11.68,6.19,19.91,50.18,30.93" transform="translate(1112.27 1233.71)"/><path class="cls-1" d="M-130.93,28.75c0-30.92-63.95-31.59-63.95-78.35,0-11.71,7.58-31.62,22.72-52.94,6.19,35.74,20.61,54.31,51.56,66,61.14,22.65,69.41,57,69.41,93.47,0,61.89-43.3,138.84-154.62,138.84-89.38,0-153.29-79.72-153.29-147.06,0-18.59,4.8-39.21,16.49-39.21,10.31,0,13.77,8.24,22,16.49,31,30.94,64.62,39.17,113.44,39.17,44,0,76.27-17.84,76.27-36.42m2.74,49.49c-23.57,10.8-33,8.94-33,33,0,8.9-2.07,20.55-2.07,26.74,0,8.24,1.39,13.08,11,13.08,24.78,0,63.95-41.92,63.95-77.67,0-9.64-5.51-13.71-11.71-13.71-5.52,0-11.65,11-28.17,18.52m-219.23-347c0-44,104.47-67.36,104.47-121.66,0-8.95-3.42-24.73-9.62-36.43,36.43,19.94,63.21,53.66,63.21,81.11,0,47.44-49.47,69.4-49.47,99,0,34.36,52.92,39.85,52.92,82.47,0,35-50.2,75.57-50.2,120.94,0,35,24.78,63.87,62.57,68.68-12.37,2.77-23.36,4.84-35,4.84-69.44,0-140.9-57-140.9-125.08,0-33.7,14.45-63.19,36.42-84.52C-293.8-163-274.56-152-262.22-152c11,0,15.85-5.48,15.85-13.74,0-25.45-101.05-48.78-101.05-103.09M-746.06,70.68c2.91,23.48,24.78,41.26,49.49,38.52,8.91-1,17.2-3.46,22.72-6.87,5.49,22,24,36.12,48.88,32.85,25.3-3.3,42.53-23.23,39.78-48.7a49.58,49.58,0,0,0-4.12-15.81s3.36-.33,5.89-.83c24.8-4.69,41.54-24.59,39.48-48.66C-546.69-3.53-568.88-21.9-592-19.06c-8.94,1.1-17.23,4.49-22.74,9.33-6.2-20.59-25.58-38.53-52.06-34.12-23.88,4-39.69,24.23-37.28,49.93a44.6,44.6,0,0,0,3.42,13.72l-6.81,1c-20.07,3-41.83,23.17-38.56,49.87m128.43-27a26.13,26.13,0,0,1-23.48,28.53,26.12,26.12,0,0,1-28.42-22.49,26.13,26.13,0,0,1,22.93-29,26.12,26.12,0,0,1,29,22.93" transform="translate(1112.27 1233.71)"/></svg>