<svg id="Layer_1" data-name="Layer 1" xmlns="http://www.w3.org/2000/svg" width="2187.55" height="552.2" viewBox="0 0 2187.55 552.2"><defs><style>.cls-1{fill:#00a650;}.cls-2{fill:red;}</style></defs><path d="M248.6,89.54l43,130.82h1.23l-43-130.82ZM436.24,237.86l-1.23.92L323.84,319.86,366.22,451.3l.31.92.92-.6L325.39,320.19l111.14-81.36-.29-.94ZM239.4,381.58,127.88,462.05l1,.61L240,381.88l-.6-.3Z"/><path class="cls-1" d="M874.35,286.45c0,12.63-5.45,16.39-25.93,23.54-16.38,6.16-29,8.88-32.76,8.88-6.83,0-9.88-5.12-9.88-15.71,0-25.23,7.15-55.94,33.77-55.94,24.57,0,34.79,26.61,34.79,39.23M608.21,396.66c0-2.07-.32-3.4-1.34-4.43-2.74-2.76-13-4.44-18.08-9.57-3.73-3.76-6.14-10.22-6.14-25.23V299.75c0-4.44,1-7.15,5.46-7.15H646.8c4.44,0,5.46,2.71,5.46,7.16v57.67c0,15-2.39,21.49-6.14,25.23-5.11,5.12-15.35,6.81-18.09,9.57-1,1-1.36,2.37-1.36,4.42,0,8.86,1.37,17.77,2.72,19.1s3.42,1.72,7.86,1.72h95.87c4.42,0,6.48-.33,7.84-1.72s2.75-10.24,2.75-19.09c0-2.07-.38-3.4-1.38-4.43-2.39-2.38-13-4.44-18.1-9.57-3.74-3.76-5.79-10.87-5.79-22.52V200.8c0-8.18,2.07-13.65,5.11-16.73,5.47-5.46,16.38-6.49,18.77-8.89,1-1,1.38-3.06,1.38-4.76,0-6.14-1.38-15.35-2.74-16.73s-2.72-1.73-7.84-1.73H640.64c-3.73,0-5.11.35-6.13,1.38s-2,8.19-2,17.4c0,1.67.34,3.74,1,4.41,1.67,1.73,10.24,4.47,13.66,7.87,3.73,3.76,5.11,7.86,5.11,19.46v45.37a4.41,4.41,0,0,1-4.1,4.09H586.74a4.39,4.39,0,0,1-4.09-4.09V202.52c0-11.6,1.37-15.7,5.12-19.46,3.41-3.41,11.93-6.13,13.65-7.87.69-.65,1-2.71,1-4.41,0-9.21-1-16.38-2.05-17.4S598,152,594.25,152H501.79c-5.11,0-6.49.36-7.87,1.73s-2.72,10.57-2.72,16.73c0,1.71.35,3.75,1.38,4.77,2.38,2.4,13.3,3.43,18.77,8.89,3,3,5.1,8.53,5.1,16.73V360.14c0,11.6-2.05,18.76-5.79,22.52-5.12,5.12-15.7,7.18-18.08,9.57-1,1-1.38,2.37-1.38,4.42,0,8.86,1.38,17.77,2.72,19.1s2.76,1.72,7.87,1.72h95.86c4.44,0,6.5-.33,7.87-1.72s2.69-10.24,2.69-19.09m317-4.79c9.89-9.88,12.3-15.7,12.3-20.48a17.34,17.34,0,0,0-5.46-13.3c-4.46-4.43-8.19-5.12-11.62-5.12-4.78,0-6.83,1.37-9.89,4.45-15,15-34.13,23.19-57.33,23.19-23.53,0-38.21-15.69-38.21-25.6,0-2.71,2.39-5.12,8.51-6.81,65.53-20.48,92.87-34.12,103-44.34,5.8-5.46,8.19-11.94,8.19-17.74,0-25.93-37.52-72-95.19-72a94.1,94.1,0,0,0-66.18,27.61c-18.08,18-29.34,43.62-29.34,78.41,0,33.47,10.58,56.65,29,75.08s45,27.61,74.05,27.61c29.67,0,57.67-10.57,78.12-31.06M1032,225.71c0-4.43-2.39-6.14-6.14-6.14H960c-3.75,0-5.11,0-6.15,1.37-1.36,1.36-2.71,10.57-2.71,16.73a7.56,7.56,0,0,0,1.35,4.08c2.4,3.07,7.53,4.1,12,7.85,3.06,3.07,4.44,9.56,4.44,19.45v91.09c0,11.61-1.38,19.12-4.8,22.53-5.11,5.11-13.65,7.53-16,9.89-.67.71-1,2.06-1,4.45,0,8.87,1.38,17.39,2.72,18.75,1,1,2.72,1.71,6.49,1.71H1044c3.74,0,5.46-.68,6.49-1.71,1.35-1.34,2.37-9.88,2.37-18.75,0-2.39-.33-3.74-1-4.45-2.38-2.38-10.24-4.75-15.35-9.89-3.39-3.41-4.42-10.92-4.42-22.52V225.71Zm-36.52-86c-18.75,0-34.11,14.69-34.11,33.12,0,18.76,15.36,33.46,34.11,33.46,19.12,0,34.48-14.68,34.48-33.46,0-18.41-15.35-33.12-34.48-33.12m264.45,132.74c0-38.23-19.79-57.66-50.85-57.66-14.67,0-30.36,4.77-46.06,14.33-5.46,3.41-7.17,4.42-8.53,4.42-5.46,0-1.68-14-11.6-14h-60c-3.77,0-4.79,0-6.15,1.37-1.67,1.67-3.07,10.58-3.07,16.73a5.38,5.38,0,0,0,1.38,4.09c2.71,2.73,7.84,3.76,11.93,7.84,3.09,3.07,4.42,9.53,4.42,19.45v91.09c0,11.62-1,19.12-4.42,22.53-4.78,4.77-13,7.53-15.35,9.9-.68.69-1,2-1,4.44,0,8.87,1,17.4,2.4,18.75,1,1,3.06,1.72,6.83,1.72h86c4.09,0,5.44-.7,6.45-1.72,1.74-1.67,3.09-9.88,3.09-18.75,0-2.4-.34-3.74-1-4.44-2.71-2.71-10.56-5.12-15.35-9.9q-5.12-5.12-5.11-22.52V292.92c0-27.61,15.33-36.16,26.6-36.16,11.62,0,18.1,8.55,18.1,26.62v94.54c0,25.23,16,41.95,45,41.95,32.07,0,45.71-23.19,45.71-28,0-4.09-6.47-12.28-10.57-12.28-4.79,0-11.6,6.14-15,6.14-2.38,0-3.74-1.67-3.74-7.18V272.46Zm632.25,119.41c9.9-9.88,12.28-15.7,12.28-20.48a17.28,17.28,0,0,0-5.49-13.3c-4.41-4.43-8.21-5.12-11.59-5.12-4.79,0-6.83,1.37-9.91,4.45-15.06,15-34.12,23.19-57.33,23.19-23.53,0-38.22-15.69-38.22-25.6,0-2.71,2.4-5.12,8.54-6.81,65.51-20.48,92.8-34.12,103-44.34,5.8-5.46,8.18-11.94,8.18-17.74,0-25.93-37.53-72-95.19-72a94,94,0,0,0-66.2,27.61c-18.06,18-29.31,43.63-29.31,78.41,0,33.47,10.57,56.64,29,75.07s45,27.61,74,27.61c29.7,0,57.72-10.57,78.16-31.05M1841.33,286.4c0,12.64-5.46,16.4-25.93,23.55-16.39,6.15-29,8.88-32.78,8.88-6.81,0-9.89-5.12-9.89-15.71,0-25.25,7.18-56,33.79-56,24.56,0,34.8,26.62,34.8,39.23m-368.5,105.42c9.88-9.89,12.3-15.71,12.3-20.48a17.28,17.28,0,0,0-5.47-13.31c-4.43-4.43-8.17-5.12-11.59-5.12-4.82,0-6.84,1.37-9.91,4.45-15,15-34.13,23.19-57.33,23.19-23.54,0-38.22-15.69-38.22-25.59,0-2.72,2.39-5.12,8.55-6.82,65.51-20.42,92.79-34.06,103-44.31,5.86-5.45,8.2-11.94,8.2-17.74,0-25.93-37.52-71.94-95.21-71.94a94,94,0,0,0-66.17,27.6c-18.07,18.1-29.34,43.66-29.34,78.44,0,33.47,10.57,56.64,29,75.07s45.06,27.61,74,27.61c29.69,0,57.69-10.57,78.14-31.05M1422,286.4c0,12.64-5.47,16.4-25.93,23.55-16.39,6.15-29,8.88-32.77,8.88-6.82,0-9.88-5.12-9.88-15.71,0-25.25,7.17-56,33.77-56,24.56,0,34.81,26.62,34.81,39.23m683.06-14c0-38.24-19.77-57.67-50.81-57.67-14.67,0-30.38,4.77-46.06,14.34-5.48,3.4-7.19,4.42-8.53,4.42-5.47,0-1.68-14-11.6-14H1928c-3.75,0-4.77,0-6.15,1.37-1.67,1.67-3.06,10.58-3.06,16.73a5.44,5.44,0,0,0,1.37,4.08c2.73,2.75,7.85,3.77,11.95,7.85,3.06,3.07,4.43,9.56,4.43,19.45v91.14c0,11.61-1,19.12-4.42,22.53-4.79,4.77-13,7.53-15.36,9.89-.68.71-1,2.06-1,4.45,0,8.87,1,17.39,2.36,18.75,1,1,3.09,1.71,6.84,1.71h86c4.11,0,5.47-.68,6.51-1.71,1.67-1.67,3-9.88,3-18.75,0-2.39-.32-3.74-1-4.45-2.72-2.7-10.57-5.12-15.35-9.89q-5.13-5.12-5.14-22.53V293c0-27.61,15.37-36.17,26.64-36.17,11.62,0,18.1,8.53,18.1,26.6v94.54c0,25.24,16,42,45,42,32.07,0,45.72-23.19,45.72-28,0-4.08-6.49-12.28-10.58-12.28-4.77,0-11.59,6.14-15,6.14-2.4,0-3.78-1.67-3.78-7.17V272.45h0ZM1569.39,145.87h-65.51c-4.11,0-5.82,0-6.81,1.73-1.37,1.67-2.42,10.21-2.42,16a10,10,0,0,0,1,4.77c2.37,2.41,11.61,4.78,15.7,8.88,3.4,3.42,5.12,10.24,5.12,36.15V349.9c0,22.88-2.37,30-5.11,32.76-4.79,4.77-13,7.53-15.36,9.89-.67.71-1,2.05-1,4.45,0,8.87,1,17.4,2.37,18.75,1,1,2.38,1.72,6.84,1.72h85.64c4.43,0,5.8-.7,6.81-1.72,1.37-1.35,3.06-9.88,3.06-18.75,0-2.4-.32-3.74-1.36-4.45-2.38-2.37-10.57-5.12-15.06-9.89-3.73-3.41-5.11-10.87-5.11-22.53V352.3c0-4.43,1.38-5.85,8.88-13.32,3.39-3.05,6.46-5.43,8.86-5.43,3.42,0,6.13,2.38,43.66,78.12,2.38,4.78,3.41,5.8,9.55,5.8h55.62c4.09,0,5.47-.7,6.49-1.72,1.36-1.35,2.72-9.88,2.72-18.75,0-2.4-.33-3.74-1-4.45-2.38-2.37-16.73-4.09-19.79-9.89-49.46-83.58-50.84-86.33-50.84-91.44,0-4.43,21.84-26.27,39.91-40.59,11.61-9.2,19.11-3.09,19.11-14,0-12.62-1.67-17.07-4.1-17.07h-82.51c-7.17,0-7.85,4.09-7.85,19.45,0,5.11,14.32,5.8,14.32,13,0,6.14-34.79,39.59-40.59,39.59-2.06,0-2.4-1.37-2.4-7.17v-129c0-5.45-3.73-9.54-8.85-9.54"/><path class="cls-2" d="M239.15,92.35l45.3,137.76,145,.51-117,85.64,44.34,138L239.15,369.55,121.54,454.36l44.34-138-117-85.69,145-.51Z"/><path class="cls-1" d="M2105.24,138.65a34.14,34.14,0,0,1,16.52,4.33,31,31,0,0,1,12.4,12.31,33.54,33.54,0,0,1,.08,33.56,31.44,31.44,0,0,1-12.36,12.35,33.62,33.62,0,0,1-33.32,0,32.1,32.1,0,0,1-12.36-12.35,33.75,33.75,0,0,1,.1-33.5A31.15,31.15,0,0,1,2088.74,143a33.88,33.88,0,0,1,16.51-4.33m0,6.56a27.21,27.21,0,0,0-13.19,3.42,25.28,25.28,0,0,0-10,9.92,27.19,27.19,0,0,0-.08,26.95,25.24,25.24,0,0,0,10,10,26.67,26.67,0,0,0,26.71,0,25.54,25.54,0,0,0,10-9.95,26.84,26.84,0,0,0-.09-26.94,24.72,24.72,0,0,0-10-9.92,27.29,27.29,0,0,0-13.22-3.44M2090.14,190V154.55h7.2c6.76,0,10.53,0,11.35.09a13.21,13.21,0,0,1,5.54,1.44,8.46,8.46,0,0,1,3.35,3.41,9.65,9.65,0,0,1,1.35,5,9.32,9.32,0,0,1-2.51,6.59,11.36,11.36,0,0,1-7,3.34,8.49,8.49,0,0,1,2.51,1.36,16.34,16.34,0,0,1,2.41,2.71c.25.35,1.14,1.79,2.62,4.32l4.19,7.16h-9l-3-5.75c-2-3.88-3.67-6.3-5-7.3a7.91,7.91,0,0,0-5-1.52h-1.87V190h-7.21m7.21-20.19h2.92c4.18,0,6.75-.17,7.73-.49a4.57,4.57,0,0,0,3.28-4.41,4.14,4.14,0,0,0-.88-2.62,4.48,4.48,0,0,0-2.4-1.67c-1-.33-3.63-.51-7.73-.51h-2.92v9.7"/></svg>